<svg width="116" height="38" viewBox="0 0 116 38" fill="none" xmlns="http://www.w3.org/2000/svg">
<path d="M61.1361 9.54755C61.1361 10.9169 60.0852 12.02 58.7806 12.02C57.4761 12.02 56.4252 10.9169 56.4252 9.54755C56.4252 8.17818 57.4398 7.07507 58.7806 7.07507C60.1214 7.11311 61.1361 8.21622 61.1361 9.54755ZM51.4244 14.5305C51.4244 14.7588 51.4244 15.1391 51.4244 15.1391C51.4244 15.1391 50.301 13.6176 47.9093 13.6176C43.9594 13.6176 40.8792 16.7748 40.8792 21.1491C40.8792 25.4855 43.9231 28.6807 47.9093 28.6807C50.3372 28.6807 51.4244 27.1211 51.4244 27.1211V27.7678C51.4244 28.0721 51.6418 28.3003 51.9317 28.3003H54.8669V13.998C54.8669 13.998 52.1854 13.998 51.9317 13.998C51.6418 13.998 51.4244 14.2643 51.4244 14.5305ZM51.4244 23.6977C50.8808 24.5345 49.7937 25.2573 48.4891 25.2573C46.1699 25.2573 44.3942 23.7357 44.3942 21.1491C44.3942 18.5626 46.1699 17.041 48.4891 17.041C49.7574 17.041 50.917 17.8018 51.4244 18.6006V23.6977ZM57.0412 13.998H60.52V28.3003H57.0412V13.998ZM109.006 13.6176C106.614 13.6176 105.491 15.1391 105.491 15.1391V7.11311H102.012V28.3003C102.012 28.3003 104.694 28.3003 104.947 28.3003C105.237 28.3003 105.455 28.034 105.455 27.7678V27.1211C105.455 27.1211 106.578 28.6807 108.97 28.6807C112.92 28.6807 116 25.4855 116 21.1491C116 16.8128 112.92 13.6176 109.006 13.6176ZM108.426 25.2192C107.086 25.2192 106.035 24.4965 105.491 23.6597V18.5626C106.035 17.8018 107.194 17.003 108.426 17.003C110.746 17.003 112.521 18.5245 112.521 21.1111C112.521 23.6977 110.746 25.2192 108.426 25.2192ZM100.2 19.8178V28.3383H96.7215V20.2362C96.7215 17.8779 95.9968 16.9269 94.0399 16.9269C92.989 16.9269 91.9019 17.4975 91.2134 18.3343V28.3003H87.7346V13.998H90.4886C90.7785 13.998 90.996 14.2643 90.996 14.5305V15.1391C92.0106 14.036 93.3514 13.6176 94.6922 13.6176C96.2142 13.6176 97.4825 14.0741 98.4972 14.987C99.7293 16.0521 100.2 17.4214 100.2 19.8178ZM79.2912 13.6176C76.8995 13.6176 75.7761 15.1391 75.7761 15.1391V7.11311H72.2973V28.3003C72.2973 28.3003 74.9789 28.3003 75.2326 28.3003C75.5225 28.3003 75.7399 28.034 75.7399 27.7678V27.1211C75.7399 27.1211 76.8632 28.6807 79.2549 28.6807C83.2048 28.6807 86.2851 25.4855 86.2851 21.1491C86.3213 16.8128 83.2411 13.6176 79.2912 13.6176ZM78.7114 25.2192C77.3706 25.2192 76.3197 24.4965 75.7761 23.6597V18.5626C76.3197 17.8018 77.4793 17.003 78.7114 17.003C81.0306 17.003 82.8062 18.5245 82.8062 21.1111C82.8062 23.6977 81.0306 25.2192 78.7114 25.2192ZM69.2896 13.6176C70.3405 13.6176 70.884 13.8078 70.884 13.8078V17.1932C70.884 17.1932 67.985 16.1662 66.1731 18.3343V28.3383H62.6943V13.998C62.6943 13.998 65.3759 13.998 65.6296 13.998C65.9195 13.998 66.1369 14.2643 66.1369 14.5305V15.1391C66.7892 14.3403 68.2024 13.6176 69.2896 13.6176ZM33.1605 27.007C32.9794 26.5505 32.7982 26.0561 32.617 25.6376C32.3271 24.953 32.0372 24.3063 31.7835 23.6977L31.7473 23.6597C29.2469 17.954 26.5653 12.1722 23.7387 6.46647L23.63 6.23824C23.3401 5.66767 23.0502 5.05906 22.7603 4.45045C22.3979 3.76577 22.0356 3.04304 21.4558 2.35836C20.2962 0.836837 18.6292 0 16.8536 0C15.0417 0 13.411 0.836837 12.2151 2.28228C11.6716 2.96697 11.273 3.68969 10.9106 4.37437C10.6207 4.98298 10.3308 5.59159 10.0409 6.16216L9.93216 6.39039C7.14185 12.0961 4.42402 17.8779 1.92362 23.5836L1.88738 23.6597C1.63372 24.2683 1.34382 24.9149 1.05391 25.5996C0.872725 26.018 0.691537 26.4745 0.510348 26.969C0.0392575 28.3764 -0.105693 29.7077 0.0754953 31.0771C0.47411 33.9299 2.286 36.3263 4.7864 37.3914C5.72858 37.8098 6.707 38 7.72166 38C8.01156 38 8.37394 37.962 8.66384 37.9239C9.85968 37.7718 11.0918 37.3534 12.2876 36.6306C13.7734 35.7558 15.1866 34.5005 16.7811 32.6747C18.3755 34.5005 19.8251 35.7558 21.2746 36.6306C22.4704 37.3534 23.7025 37.7718 24.8983 37.9239C25.1882 37.962 25.5506 38 25.8405 38C26.8552 38 27.8698 37.8098 28.7758 37.3914C31.3124 36.3263 33.0881 33.8919 33.4867 31.0771C33.7766 29.7457 33.6316 28.4144 33.1605 27.007ZM16.8173 28.985C14.8605 26.3984 13.5922 23.964 13.1573 21.9099C12.9761 21.035 12.9399 20.2743 13.0486 19.5896C13.1211 18.981 13.3385 18.4484 13.6284 17.992C14.3169 16.965 15.4765 16.3183 16.8173 16.3183C18.1581 16.3183 19.354 16.9269 20.0062 17.992C20.2962 18.4484 20.5136 18.981 20.5861 19.5896C20.6948 20.2743 20.6585 21.0731 20.4773 21.9099C20.0425 23.9259 18.7742 26.3604 16.8173 28.985ZM31.2762 30.7728C31.0225 32.7508 29.7542 34.4625 27.9785 35.2232C27.1088 35.6036 26.1667 35.7177 25.2245 35.6036C24.3185 35.4895 23.4126 35.1852 22.4704 34.6146C21.1659 33.8539 19.8613 32.6747 18.3393 30.9249C20.731 27.8438 22.1805 25.029 22.7241 22.5185C22.9777 21.3393 23.014 20.2743 22.9053 19.2853C22.7603 18.3343 22.4342 17.4595 21.9268 16.6987C20.8035 14.987 18.9191 13.998 16.8173 13.998C14.7155 13.998 12.8312 15.025 11.7078 16.6987C11.2005 17.4595 10.8743 18.3343 10.7294 19.2853C10.5844 20.2743 10.6207 21.3774 10.9106 22.5185C11.4541 25.029 12.9399 27.8819 15.2953 30.963C13.8096 32.7127 12.4688 33.8919 11.1642 34.6526C10.2221 35.2232 9.31612 35.5275 8.41017 35.6416C7.43176 35.7558 6.48957 35.6036 5.65611 35.2613C3.88046 34.5005 2.61214 32.7888 2.35847 30.8108C2.24976 29.8599 2.32223 28.9089 2.68461 27.8438C2.79333 27.4635 2.97451 27.0831 3.1557 26.6266C3.40937 26.018 3.69927 25.3714 3.98917 24.7247L4.02541 24.6486C6.52581 18.981 9.2074 13.1992 11.9977 7.56957L12.1064 7.34134C12.3963 6.77077 12.6862 6.16216 12.9761 5.59159C13.266 4.98298 13.5922 4.41241 13.9908 3.91792C14.7518 3.005 15.7664 2.51051 16.8898 2.51051C18.0132 2.51051 19.0278 3.005 19.7888 3.91792C20.1874 4.41241 20.5136 4.98298 20.8035 5.59159C21.0934 6.16216 21.3833 6.77077 21.6732 7.34134L21.7819 7.56957C24.536 13.2372 27.2176 19.019 29.718 24.6867V24.7247C30.0079 25.3333 30.2615 26.018 30.5514 26.6266C30.7326 27.0831 30.9138 27.4635 31.0225 27.8438C31.3124 28.8328 31.4211 29.7838 31.2762 30.7728Z" fill="#DFDFDF"/>
</svg>
