<svg width="116" height="38" viewBox="0 0 116 38" fill="none" xmlns="http://www.w3.org/2000/svg">
<path d="M15.9503 35.5506C14.2054 35.9221 12.4297 36.0334 10.5928 36.33L4.99015 16.4395V37.1837C3.24517 37.4063 1.65323 37.7031 0 38V0H4.65359L11.0214 21.5609V0H15.9503V35.5506ZM25.5941 13.916C27.4923 13.916 30.4007 13.8047 32.1457 13.8047V19.742C29.972 19.742 27.4311 19.742 25.5941 19.8534V28.6856C28.472 28.463 31.3498 28.1659 34.2581 28.0545V33.769L20.6956 35.0681V0H34.2581V5.93751H25.5941V13.916ZM52.4739 5.93765H47.3919V33.2501C45.7387 33.2501 44.0854 33.2501 42.4937 33.3241V5.93765H37.4117V0H52.4741L52.4739 5.93765ZM60.4337 13.5079H67.1385V19.4453H60.4337V32.9162H55.6269V0H69.3122V5.93751H60.4337V13.5079ZM77.272 27.7207C80.058 27.7947 82.8744 28.0549 85.5993 28.2401V34.1035C81.2214 33.7693 76.8434 33.4357 72.3737 33.3241V0H77.272V27.7207ZM89.7322 34.5117C91.2936 34.6232 92.9468 34.7346 94.5388 34.9569V0H89.7322V34.5117ZM116 0L109.785 18.0723L116 38C114.163 37.7031 112.326 37.2949 110.489 36.9237L106.969 25.9396L103.387 36.0334C101.611 35.662 99.8965 35.5506 98.1212 35.2538L104.428 17.8495L98.7332 0H103.999L107.213 9.98245L110.642 0H116V0Z" fill="#DFDFDF"/>
</svg>
