<svg width="116" height="38" viewBox="0 0 116 38" fill="none" xmlns="http://www.w3.org/2000/svg">
<path fill-rule="evenodd" clip-rule="evenodd" d="M18.2468 0.917654V21.8671C18.2468 28.8628 16.2734 31.7679 11.6449 31.7679C7.01607 31.7679 5.04271 28.8628 5.04271 21.8671V0H0.584772C0.195189 0 0 0.306301 0 0.917654V22.2109C0 33.9095 4.75052 38 11.6449 38C18.539 38 23.2895 33.9095 23.2895 22.2109V0H18.8312C18.4416 0 18.2468 0.306301 18.2468 0.917654Z" fill="#DFDFDF"/>
<path fill-rule="evenodd" clip-rule="evenodd" d="M82.8735 6.0786C83.2388 6.0786 83.4093 5.88771 83.531 5.46662L84.8226 0.458515C84.8957 0.153462 84.8226 0 84.6274 0H66.6732C64.992 0 64.3591 0.802869 64.3591 2.5995V35.1322C64.3591 36.6619 64.8457 37.35 66.1373 37.35H82.8735C83.2388 37.35 83.4093 37.1584 83.531 36.7386L84.8226 31.7299C84.8957 31.4242 84.8226 31.2714 84.6274 31.2714H69.3044V24.6575C69.3044 22.3637 70.1083 21.3313 72.276 21.3313H78.9271C79.2925 21.3313 79.4626 21.141 79.5847 20.7205L80.8274 15.9033C80.9001 15.597 80.8274 15.4448 80.6322 15.4448H69.3044V6.0786H82.8735Z" fill="#DFDFDF"/>
<path fill-rule="evenodd" clip-rule="evenodd" d="M46.5894 31.3481H37.7924V24.5047C37.7924 22.2109 38.5962 21.179 40.7647 21.179H46.5894C49.3908 21.179 50.1704 22.8609 50.1704 26.3019C50.1704 29.7424 49.3908 31.3481 46.5894 31.3481ZM37.7924 6.00187H45.6635C48.2944 6.00187 49.0255 7.55708 49.0255 10.7804C49.0255 14.0044 48.2944 15.5596 45.6635 15.5596H37.7924V6.00187ZM51.2668 17.6619C53.2155 16.0561 54.0193 13.0362 54.0193 9.48097C54.0193 1.22333 49.7319 0 45.2982 0H35.1639C33.4827 0 32.8499 0.802869 32.8499 2.5995V35.1322C32.8499 36.6619 33.3368 37.35 34.628 37.35H47.101C51.8027 37.35 55.1642 34.4828 55.1642 27.0281C55.1642 22.5552 53.9462 18.7704 51.2668 17.6619Z" fill="#DFDFDF"/>
<path fill-rule="evenodd" clip-rule="evenodd" d="M106.637 17.3175H98.3538V6.00249H106.637C109.73 6.00249 110.413 7.87523 110.413 11.66C110.413 15.4828 109.73 17.3175 106.637 17.3175ZM115.943 36.6999L110.608 22.3256C113.263 21.2558 115.407 18.5034 115.407 11.5072C115.407 2.44729 111.825 0 105.906 0H95.7229C94.0421 0 93.4084 0.802869 93.4084 2.5995V36.4323C93.4084 37.0437 93.6036 37.35 93.9932 37.35H98.3538V26.4548C98.3538 24.1609 99.1576 23.1285 101.326 23.1285H105.711L110.534 36.7386C110.68 37.1204 110.827 37.35 111.192 37.35H115.724C116.04 37.35 116.04 36.9289 115.943 36.6999Z" fill="#DFDFDF"/>
</svg>
