<svg width="120" height="120" viewBox="0 0 120 120" fill="none" xmlns="http://www.w3.org/2000/svg">
<g clip-path="url(#clip0_229_237)">
<path d="M120.47 33.1766C120.47 53.4373 120.47 73.698 120.47 93.9586C119.742 96.1728 118.559 97.0523 116.193 97.1433C115.738 97.1737 115.253 97.1433 114.798 97.1433C78.6138 97.1433 42.4296 97.1433 6.24551 97.1433C5.79055 97.1433 5.30527 97.1433 4.85031 97.1433C2.45421 97.0523 1.27133 96.1728 0.57373 93.9586C0.57373 73.698 0.57373 53.4373 0.57373 33.1766C1.21067 32.661 1.9386 32.8126 2.6362 32.8126C10.977 32.8126 19.3179 32.8126 27.6284 32.8126C57.7465 32.8126 87.8949 32.8126 118.013 32.8126C118.832 32.8126 119.711 32.6003 120.47 33.1766Z" fill="#E5EAF1"/>
<path d="M120.47 33.1766C120.136 33.1766 119.802 33.207 119.469 33.207C80.1607 33.207 40.8829 33.207 1.57469 33.207C1.24105 33.207 0.907421 33.1766 0.573787 33.1766C0.573787 30.3559 0.543457 27.5049 0.543457 24.6841C0.543457 22.0454 2.09031 20.4985 4.72905 20.4985C20.1672 20.4985 35.6357 20.4985 51.0739 20.4985C72.6994 20.4985 94.325 20.4985 115.951 20.4985C119.105 20.4985 120.5 21.8937 120.5 25.0481C120.5 27.7475 120.47 30.4469 120.47 33.1766Z" fill="#3E465F"/>
<path d="M0.543374 93.9587C1.6656 96.2638 3.54608 96.7794 5.97251 96.7794C42.3386 96.7187 78.7047 96.7187 115.041 96.7794C117.467 96.7794 119.347 96.2638 120.47 93.9587C120.47 94.5653 120.5 95.1416 120.47 95.7482C120.348 97.6893 118.892 99.1452 116.982 99.2968C116.557 99.3271 116.132 99.2968 115.708 99.2968C79.0687 99.2968 42.4599 99.2665 5.82086 99.3575C2.12055 99.3575 0.179409 97.9319 0.543374 93.9587Z" fill="#B3C2D8"/>
<path d="M8.15631 24.2595C9.6425 24.2595 10.7344 25.3514 10.7041 26.8073C10.6737 28.1721 9.5515 29.2034 8.12597 29.173C6.76111 29.1427 5.69954 28.1115 5.63888 26.8073C5.57822 25.3817 6.67012 24.2595 8.15631 24.2595Z" fill="#E57345"/>
<path d="M28.4472 29.1731C27.0217 29.1428 25.8995 28.0812 25.9601 26.7163C26.0208 25.2302 27.0823 24.2293 28.5989 24.2596C30.0244 24.2899 31.0253 25.3515 31.0253 26.777C31.0253 28.1722 29.9031 29.2034 28.4472 29.1731Z" fill="#2BAAA9"/>
<path d="M18.2865 29.2337C16.8913 29.2034 15.7691 28.1115 15.7994 26.7466C15.7994 25.2908 16.952 24.2292 18.4382 24.2595C19.8334 24.2899 20.9253 25.4424 20.8646 26.8073C20.8039 28.2025 19.712 29.2337 18.2865 29.2337Z" fill="#EAC747"/>
<path d="M38.8056 49.4547C41.6193 50.9969 44.4331 52.5119 47.2197 54.0541C47.7338 54.3246 48.2208 54.6222 48.7078 54.8928C49.5465 55.3798 49.6006 56.0832 49.1406 56.7866C47.9232 58.5452 46.6245 60.3038 45.3529 62.0083C44.8389 62.6846 44.1625 62.8199 43.3779 62.4682C42.945 62.2788 42.5392 62.0353 42.1063 61.8459C41.2135 61.4131 40.8888 61.6295 40.8618 62.6305C40.8347 63.1446 40.8347 63.6316 40.8347 64.1456C40.483 64.4973 40.0501 64.4703 39.6173 64.4703C36.1001 64.4703 32.5829 64.4703 29.0658 64.4703C28.687 64.4703 28.3353 64.4703 27.9836 64.2809C27.8754 64.1997 27.7942 64.0915 27.7401 63.9833C27.5507 63.4692 27.6048 62.9281 27.6048 62.387C27.6048 59.8168 27.6048 57.2736 27.6048 54.7034C27.6048 54.1893 27.5507 53.6753 27.7671 53.2154C27.9565 52.8907 28.2 52.9989 28.4435 53.1613C28.7411 53.3777 28.9846 53.6482 29.2552 53.8917C30.9596 55.3798 32.4206 55.4068 34.1792 53.9729C35.5049 52.6472 36.9118 51.4027 38.1022 49.9688C38.2916 49.7523 38.508 49.5629 38.8056 49.4547Z" fill="#676788"/>
<path d="M40.8347 67.2299C40.8347 70.233 40.8618 73.2362 40.8618 76.2393C40.8618 77.3756 40.3207 77.8896 39.0491 77.9167C37.5069 77.9437 35.9377 77.9167 34.3956 77.9167C31.149 77.9167 27.9294 77.9437 24.6828 77.9437C24.3311 77.9437 23.9253 78.052 23.6277 77.7814C23.9794 77.3756 24.4934 77.4567 24.9534 77.4567C26.0085 77.4297 27.0907 77.4838 28.2541 77.4026C27.5507 76.3745 27.6048 75.3194 27.6048 74.2372C27.6048 72.3433 27.6048 70.4765 27.6048 68.5827C27.6048 68.0957 27.5507 67.5546 27.9565 67.1488C28.4164 66.8512 28.9305 66.9053 29.4175 66.9053C32.7182 66.9053 36.0189 66.9053 39.2926 66.9053C39.8066 66.9053 40.3748 66.7971 40.8347 67.2299Z" fill="#676788"/>
<path d="M28.0916 53.0529C27.767 53.3505 27.9022 53.7563 27.9022 54.108C27.9022 57.4087 27.9022 60.6824 27.9022 63.9831C27.6587 64.1996 27.3882 64.2807 27.0906 64.2807C25.9002 64.3078 24.7097 64.3078 23.4923 64.2807C23.1947 64.2807 22.897 64.1996 22.6806 63.9831C22.6806 63.5232 22.6806 63.0362 22.6536 62.5763C22.6265 61.7105 22.3018 61.5211 21.4902 61.8728C21.4361 61.8999 21.382 61.9269 21.3008 61.954C19.3258 62.9821 19.0823 63.442 17.2966 60.9529C16.3768 59.6543 15.4298 58.4098 14.537 57.1111C13.7524 56.0019 13.8877 55.4067 15.0511 54.7573C17.8648 53.1881 20.6785 51.619 23.5193 50.0498C23.9522 49.8063 24.3851 49.5087 24.8991 49.4275C24.9532 49.4545 24.9803 49.4816 25.0344 49.4816C25.8731 50.4015 26.793 51.2402 27.6587 52.1601C27.8481 52.3765 28.2269 52.5929 28.0916 53.0529Z" fill="#51506D"/>
<path d="M27.9022 67.2297C27.9022 69.7729 27.9293 72.3431 27.9022 74.8863C27.8752 75.9144 28.0646 76.8072 29.0115 77.7812C27.0635 77.7812 25.332 77.7812 23.6275 77.7812C22.9512 77.5918 22.6536 77.0778 22.6536 76.4284C22.6536 73.3712 22.6806 70.314 22.6806 67.2568C22.843 67.0674 23.0594 66.9862 23.3029 66.9862C24.7909 66.9862 26.2789 66.7698 27.767 67.1215C27.794 67.1215 27.8481 67.1756 27.9022 67.2297Z" fill="#51506D"/>
<path d="M40.8346 67.2298C36.5329 67.2298 32.204 67.2298 27.9023 67.2298C27.4424 66.2287 27.4153 65.2006 27.9023 64.1996C32.204 64.1996 36.5058 64.1996 40.8346 64.1996C40.8076 65.1736 40.8076 66.2017 40.8346 67.2298Z" fill="#7A7A9F"/>
<path d="M38.8057 49.4546C37.5341 51.1861 35.9378 52.62 34.3957 54.0539C33.0971 52.9447 31.9066 51.6731 30.7433 50.4286C30.2292 49.8875 29.7422 49.6169 28.9847 49.644C28.0107 49.6981 27.0367 49.671 26.0627 49.644C25.6569 49.644 25.2511 49.6981 24.8994 49.4275L24.8723 49.3734C25.1429 49.1029 25.4946 49.184 25.8192 49.184C29.5799 49.184 33.3406 49.184 37.1012 49.2381C37.6694 49.2652 38.2375 49.3734 38.8057 49.4546Z" fill="#51506D"/>
<path d="M27.902 64.1725C27.902 65.1735 27.902 66.2016 27.902 67.2027C26.1705 67.2027 24.4119 67.2027 22.6804 67.2027C22.6804 66.1205 22.6804 65.0383 22.6804 63.929C24.4119 63.929 26.1705 63.929 27.902 63.929C27.902 64.0372 27.902 64.1184 27.902 64.1725Z" fill="#676788"/>
<path d="M24.8993 49.4273C26.4685 49.4273 28.0647 49.4003 29.6339 49.4003C29.9044 49.4003 30.2021 49.3462 30.3914 49.5896C31.5277 51.0506 32.9887 52.214 34.2062 53.5938C34.3144 53.702 34.3144 53.8914 34.3956 54.0537C32.9617 55.65 30.9325 55.7041 29.2281 54.2161C28.8222 53.8643 28.4976 53.4315 28.1188 53.0527C27.253 52.1328 26.3602 51.24 25.4945 50.3201C25.2239 50.0496 24.8451 49.8873 24.8993 49.4273Z" fill="#3D3D5B"/>
<path d="M89.5991 65.0974C93.4743 65.0974 97.3011 65.0974 101.176 65.0974C103.356 65.0974 104.567 66.0963 104.616 67.9363C104.664 70.0391 103.501 71.3534 101.273 71.3534C93.4743 71.406 85.7239 71.406 77.925 71.3534C75.164 71.3534 73.6623 69.2506 74.5342 66.8323C75.1155 65.2551 76.4234 65.0974 77.6828 65.0974C81.6549 65.0448 85.627 65.0974 89.5991 65.0974Z" fill="#676788"/>
<path d="M89.5723 56.2277C93.5742 56.2277 97.6242 56.2277 101.626 56.2277C103.699 56.2277 104.519 56.945 104.615 58.559C104.664 60.1282 103.555 61.2491 101.674 61.2491C93.5259 61.2939 85.3776 61.2939 77.1809 61.2491C75.4452 61.2491 74.2398 60.0834 74.288 58.6487C74.3362 57.214 75.5898 56.2277 77.3256 56.2277C81.4239 56.2277 85.474 56.2277 89.5723 56.2277Z" fill="#676788"/>
<path d="M69.2316 68.4587C69.2316 70.3195 68.2921 71.4472 66.8159 71.3908C65.2054 71.3345 64.1765 70.2067 64.1765 68.4024C64.1765 66.598 65.2949 65.1319 66.6369 65.0756C68.0685 65.0192 69.2316 66.5416 69.2316 68.4587Z" fill="#676788"/>
<path d="M66.6378 61.2807C64.9832 61.2807 64.1335 60.3664 64.1782 58.682C64.2229 57.0939 65.0726 56.2277 66.6825 56.2277C68.3372 56.2277 69.2316 57.142 69.2316 58.8264C69.1869 60.5107 68.3819 61.3288 66.6378 61.2807Z" fill="#676788"/>
</g>
<defs>
<clipPath id="clip0_229_237">
<rect width="120" height="120" fill="white"/>
</clipPath>
</defs>
</svg>
