<svg width="116" height="38" viewBox="0 0 116 38" fill="none" xmlns="http://www.w3.org/2000/svg">
<path d="M49.6495 19.997C49.6495 25.4616 45.356 29.4883 40.087 29.4883C34.818 29.4883 30.5245 25.4616 30.5245 19.997C30.5245 14.494 34.818 10.5057 40.087 10.5057C45.356 10.5057 49.6495 14.494 49.6495 19.997ZM45.4635 19.997C45.4635 16.5822 42.9751 14.2458 40.087 14.2458C37.1989 14.2458 34.7105 16.5822 34.7105 19.997C34.7105 23.3776 37.1989 25.7483 40.087 25.7483C42.9751 25.7483 45.4635 23.3733 45.4635 19.997Z" fill="#EA4335"/>
<path d="M70.2786 19.997C70.2786 25.4616 65.9852 29.4883 60.7161 29.4883C55.4471 29.4883 51.1537 25.4616 51.1537 19.997C51.1537 14.4982 55.4471 10.5057 60.7161 10.5057C65.9852 10.5057 70.2786 14.494 70.2786 19.997ZM66.0926 19.997C66.0926 16.5822 63.6042 14.2458 60.7161 14.2458C57.8281 14.2458 55.3397 16.5822 55.3397 19.997C55.3397 23.3776 57.8281 25.7483 60.7161 25.7483C63.6042 25.7483 66.0926 23.3733 66.0926 19.997Z" fill="#FBBC05"/>
<path d="M90.0483 11.0792V28.119C90.0483 35.1283 85.8966 37.9911 80.9886 37.9911C76.3686 37.9911 73.5879 34.9144 72.5393 32.3982L76.1838 30.8876C76.8327 32.4324 78.4229 34.2554 80.9843 34.2554C84.126 34.2554 86.0729 32.3254 86.0729 28.6924V27.3273H85.9267C84.9898 28.4784 83.1848 29.484 80.907 29.484C76.1408 29.484 71.7743 25.3503 71.7743 20.0313C71.7743 14.6737 76.1408 10.5057 80.907 10.5057C83.1805 10.5057 84.9855 11.5114 85.9267 12.6282H86.0729V11.0834H90.0483V11.0792ZM86.3694 20.0313C86.3694 16.6892 84.1303 14.2458 81.2809 14.2458C78.3928 14.2458 75.9732 16.6892 75.9732 20.0313C75.9732 23.3391 78.3928 25.7483 81.2809 25.7483C84.1303 25.7483 86.3694 23.3391 86.3694 20.0313Z" fill="#4285F4"/>
<path d="M96.6023 1.09149V28.9064H92.5194V1.09149H96.6023Z" fill="#34A853"/>
<path d="M112.512 23.1209L115.762 25.2776C114.713 26.8224 112.186 29.484 107.819 29.484C102.404 29.484 98.36 25.3161 98.36 19.9928C98.36 14.3485 102.439 10.5015 107.351 10.5015C112.298 10.5015 114.717 14.4212 115.508 16.5394L115.942 17.6178L103.199 22.8727C104.175 24.7769 105.692 25.7483 107.819 25.7483C109.951 25.7483 111.429 24.7042 112.512 23.1209ZM102.512 19.706L111.03 16.1843C110.561 14.9989 109.152 14.173 107.493 14.173C105.365 14.173 102.404 16.043 102.512 19.706V19.706Z" fill="#EA4335"/>
<path d="M15.07 17.5277V13.501H28.6981C28.8313 14.2027 28.9001 15.0329 28.9001 15.9315C28.9001 18.9527 28.0706 22.6884 25.3974 25.3501C22.7973 28.046 19.4751 29.4838 15.0743 29.4838C6.91717 29.4838 0.0579834 22.8681 0.0579834 14.7462C0.0579834 6.62426 6.91717 0.00860596 15.0743 0.00860596C19.5869 0.00860596 22.8016 1.77164 25.2169 4.06958L22.3632 6.91097C20.6312 5.29343 18.2847 4.03534 15.07 4.03534C9.11331 4.03534 4.45457 8.81522 4.45457 14.7462C4.45457 20.6772 9.11331 25.4571 15.07 25.4571C18.9336 25.4571 21.1341 23.9123 22.5437 22.5087C23.6869 21.3704 24.439 19.7443 24.7356 17.5234L15.07 17.5277Z" fill="#4285F4"/>
</svg>
