<svg width="145" height="50" viewBox="0 0 145 50" fill="none" xmlns="http://www.w3.org/2000/svg">
<g clip-path="url(#clip0_1432_221)">
<path d="M41.0728 29.1083C42.2193 29.1083 43.1934 28.7053 43.9955 27.8954C44.8055 27.0855 45.2085 26.1112 45.2085 24.9726C45.2085 23.8262 44.8055 22.8481 43.9955 22.0382C43.1934 21.2321 42.2193 20.833 41.0728 20.833C39.9264 20.833 38.9482 21.2321 38.1383 22.0382C37.3362 22.8481 36.9332 23.8262 36.9332 24.9726C36.9332 26.1112 37.3362 27.0855 38.1383 27.8954C38.9482 28.7053 39.9264 29.1083 41.0728 29.1083ZM35.8573 35.9633C35.5716 35.9633 35.329 35.8616 35.1216 35.6542C34.9142 35.4469 34.8125 35.2042 34.8125 34.9187V24.9726C34.8203 23.2432 35.4347 21.772 36.6593 20.5591C37.8723 19.3423 39.3434 18.7358 41.0728 18.7358C42.7983 18.7358 44.2734 19.3462 45.4941 20.5708C46.7188 21.7916 47.3291 23.2668 47.3291 24.9922C47.3291 26.7216 46.7188 28.1967 45.4941 29.4175C44.2734 30.6422 42.7983 31.2525 41.0728 31.2525C39.4882 31.2525 38.1109 30.7282 36.9332 29.6835V34.9187C36.9332 35.2043 36.8314 35.4469 36.624 35.6542C36.4168 35.8616 36.1741 35.9633 35.8885 35.9633H35.8572L35.8573 35.9633Z" fill="white"/>
<path d="M55.5379 18.7358C57.2634 18.7358 58.7385 19.3461 59.9592 20.5708C61.1839 21.7916 61.7942 23.2667 61.7942 24.9922V30.2078C61.7942 30.5012 61.6925 30.7437 61.4851 30.9433C61.2778 31.1507 61.0351 31.2524 60.7535 31.2524H60.7183C60.4365 31.2524 60.1901 31.1507 59.9827 30.9433C59.7792 30.7437 59.6736 30.5012 59.6736 30.2078V29.6835C58.4881 30.7281 57.1107 31.2524 55.5378 31.2524C53.8085 31.2524 52.3334 30.6421 51.1127 29.4174C49.888 28.1967 49.2776 26.7215 49.2776 24.9921C49.2776 23.2667 49.888 21.7915 51.1127 20.5708C52.3334 19.3461 53.8085 18.7358 55.5378 18.7358L55.5379 18.7358ZM55.5379 20.8565C54.3915 20.8565 53.4133 21.2595 52.6034 22.0694C51.8013 22.8793 51.3983 23.8536 51.3983 24.9922C51.3983 26.1386 51.8013 27.1168 52.6034 27.9267C53.4133 28.7287 54.3915 29.1318 55.5379 29.1318C56.6843 29.1318 57.6585 28.7287 58.4606 27.9267C59.2706 27.1168 59.6736 26.1386 59.6736 24.9922C59.6736 23.8536 59.2706 22.8793 58.4606 22.0694C57.6585 21.2595 56.6843 20.8565 55.5379 20.8565Z" fill="white"/>
<path d="M65.5898 18.7358C65.8793 18.7358 66.1218 18.8375 66.3214 19.0449C66.5288 19.2523 66.6305 19.4988 66.6305 19.7883V30.2078C66.6305 30.5012 66.5288 30.7437 66.3214 30.9433C66.1219 31.1507 65.8793 31.2524 65.5898 31.2524H65.5662C65.2768 31.2524 65.0264 31.1507 64.819 30.9433C64.6155 30.7438 64.5099 30.5012 64.5099 30.2078V19.7883C64.5099 19.4988 64.6155 19.2523 64.819 19.0449C65.0264 18.8375 65.2768 18.7358 65.5662 18.7358H65.5898ZM65.5781 16.5565C65.2258 16.5565 64.9285 16.4351 64.6821 16.1886C64.4394 15.946 64.3181 15.6487 64.3181 15.2965C64.3181 14.9522 64.4394 14.6588 64.6821 14.4123C64.9285 14.1697 65.2258 14.0484 65.5781 14.0484C65.9224 14.0484 66.2158 14.1697 66.4583 14.4123C66.7127 14.6588 66.8379 14.9522 66.8379 15.2965C66.8379 15.6487 66.7127 15.946 66.4583 16.1886C66.2158 16.4351 65.9224 16.5565 65.5781 16.5565Z" fill="white"/>
<path d="M75.2776 20.88C74.1312 20.88 73.153 21.283 72.3431 22.0929C71.541 22.9028 71.138 23.881 71.138 25.0274C71.138 26.166 71.541 27.1402 72.3431 27.9501C73.153 28.7601 74.1312 29.167 75.2776 29.167C76.424 29.167 77.3983 28.7601 78.2003 27.9501C79.0103 27.1402 79.4133 26.1661 79.4133 25.0274C79.4133 23.881 79.0103 22.9028 78.2003 22.0929C77.3983 21.283 76.424 20.88 75.2776 20.88ZM80.4932 14.0367C80.7749 14.0367 81.0175 14.1345 81.2248 14.3341C81.4322 14.5415 81.5339 14.788 81.5339 15.0774V25.0274C81.5261 26.749 80.9119 28.2163 79.6911 29.4292C78.4665 30.646 76.9953 31.2525 75.2776 31.2525C73.5482 31.2525 72.0732 30.6421 70.8524 29.4175C69.6278 28.1967 69.0173 26.7215 69.0173 24.9922C69.0173 23.2667 69.6278 21.7916 70.8524 20.5708C72.0732 19.3461 73.5483 18.7358 75.2776 18.7358C76.8505 18.7358 78.2317 19.2601 79.4133 20.3048V15.0774C79.4133 14.7879 79.519 14.5415 79.7224 14.3341C79.9298 14.1345 80.1763 14.0367 80.4581 14.0367H80.4932L80.4932 14.0367Z" fill="white"/>
<path d="M90.0867 18.7358C91.8122 18.7358 93.2873 19.3461 94.5081 20.5708C95.7327 21.7916 96.3431 23.2667 96.3431 24.9922V30.2078C96.3431 30.5012 96.2413 30.7437 96.0339 30.9433C95.8266 31.1507 95.584 31.2524 95.3023 31.2524H95.2671C94.9854 31.2524 94.7389 31.1507 94.5315 30.9433C94.328 30.7437 94.2224 30.5012 94.2224 30.2078V29.6835C93.0369 30.7281 91.6596 31.2524 90.0867 31.2524C88.3573 31.2524 86.8823 30.6421 85.6615 29.4174C84.4368 28.1967 83.8264 26.7215 83.8264 24.9921C83.8264 23.2667 84.4368 21.7915 85.6615 20.5708C86.8823 19.3461 88.3573 18.7358 90.0867 18.7358L90.0867 18.7358ZM90.0867 20.8565C88.9403 20.8565 87.9621 21.2595 87.1522 22.0694C86.3501 22.8793 85.9471 23.8536 85.9471 24.9922C85.9471 26.1386 86.3501 27.1168 87.1522 27.9267C87.9621 28.7287 88.9403 29.1318 90.0867 29.1318C91.2332 29.1318 92.2074 28.7287 93.0094 27.9267C93.8194 27.1168 94.2224 26.1386 94.2224 24.9922C94.2224 23.8536 93.8194 22.8793 93.0094 22.0694C92.2074 21.2595 91.2332 20.8565 90.0867 20.8565Z" fill="white"/>
<path d="M104.552 20.88C103.406 20.88 102.427 21.283 101.618 22.0929C100.815 22.9028 100.412 23.881 100.412 25.0274C100.412 26.166 100.815 27.1402 101.618 27.9501C102.427 28.7601 103.406 29.167 104.552 29.167C105.698 29.167 106.673 28.7601 107.475 27.9501C108.285 27.1402 108.688 26.1661 108.688 25.0274C108.688 23.881 108.285 22.9028 107.475 22.0929C106.673 21.283 105.698 20.88 104.552 20.88ZM109.768 14.0367C110.049 14.0367 110.292 14.1345 110.499 14.3341C110.707 14.5415 110.808 14.788 110.808 15.0774V25.0274C110.801 26.749 110.186 28.2163 108.966 29.4292C107.741 30.646 106.27 31.2525 104.552 31.2525C102.823 31.2525 101.348 30.6421 100.127 29.4175C98.9022 28.1967 98.2917 26.7215 98.2917 24.9922C98.2917 23.2667 98.9022 21.7916 100.127 20.5708C101.348 19.3461 102.823 18.7358 104.552 18.7358C106.125 18.7358 107.506 19.2601 108.688 20.3048V15.0774C108.688 14.7879 108.793 14.5415 108.997 14.3341C109.204 14.1345 109.451 14.0367 109.732 14.0367H109.768L109.768 14.0367Z" fill="white"/>
<path d="M116.31 20.8565C115.883 20.8565 115.519 21.0052 115.222 21.3026C114.924 21.6078 114.776 21.9716 114.776 22.3903C114.776 22.9889 115.057 23.435 115.625 23.7324C115.797 23.8263 116.458 24.0218 117.605 24.327C118.461 24.5735 119.088 24.8866 119.487 25.27C120.05 25.8021 120.336 26.5807 120.336 27.5941C120.336 28.6036 119.98 29.4683 119.267 30.1882C118.551 30.8964 117.687 31.2525 116.677 31.2525H113.684C113.402 31.2525 113.16 31.1507 112.952 30.9434C112.745 30.7438 112.643 30.5012 112.643 30.2078V30.1882C112.643 29.8948 112.745 29.6483 112.952 29.4409C113.16 29.2335 113.402 29.1318 113.684 29.1318H116.791C117.221 29.1318 117.581 28.9832 117.882 28.6858C118.18 28.3884 118.328 28.0245 118.328 27.5941C118.328 27.0307 118.047 26.6081 117.479 26.3343C117.35 26.2755 116.689 26.076 115.496 25.7396C114.647 25.4852 114.021 25.1644 113.618 24.777C113.05 24.2175 112.769 23.4232 112.769 22.3903C112.769 21.3847 113.125 20.5239 113.833 19.8119C114.553 19.0958 115.417 18.7358 116.427 18.7358H118.536C118.825 18.7358 119.072 18.8376 119.279 19.045C119.487 19.2524 119.588 19.4988 119.588 19.7883V19.8119C119.588 20.1013 119.487 20.3478 119.279 20.5474C119.072 20.7509 118.825 20.8565 118.536 20.8565H116.31Z" fill="white"/>
<path d="M128.951 18.7358C129.241 18.7358 129.483 18.8375 129.683 19.0449C129.89 19.2523 129.992 19.4988 129.992 19.7883V30.2078C129.992 30.5012 129.89 30.7437 129.683 30.9433C129.483 31.1507 129.241 31.2524 128.951 31.2524H128.928C128.638 31.2524 128.388 31.1507 128.181 30.9433C127.977 30.7438 127.871 30.5012 127.871 30.2078V19.7883C127.871 19.4988 127.977 19.2523 128.181 19.0449C128.388 18.8375 128.638 18.7358 128.928 18.7358H128.951ZM128.94 16.5565C128.587 16.5565 128.29 16.4351 128.044 16.1886C127.801 15.946 127.68 15.6487 127.68 15.2965C127.68 14.9522 127.801 14.6588 128.044 14.4123C128.29 14.1697 128.587 14.0484 128.94 14.0484C129.284 14.0484 129.577 14.1697 129.82 14.4123C130.074 14.6588 130.199 14.9522 130.199 15.2965C130.199 15.6487 130.074 15.946 129.82 16.1886C129.577 16.4351 129.284 16.5565 128.94 16.5565Z" fill="white"/>
<path d="M138.639 20.88C139.786 20.88 140.76 21.283 141.562 22.0929C142.372 22.9028 142.775 23.881 142.775 25.0274C142.775 26.1661 142.372 27.1402 141.562 27.9501C140.76 28.7601 139.786 29.167 138.639 29.167C137.493 29.167 136.515 28.7601 135.705 27.9501C134.903 27.1402 134.5 26.1661 134.5 25.0274C134.5 23.881 134.903 22.9028 135.705 22.0929C136.515 21.283 137.493 20.88 138.639 20.88ZM138.639 18.7358C136.91 18.7358 135.435 19.3462 134.214 20.5708C132.989 21.7916 132.379 23.2668 132.379 24.9922C132.379 26.7216 132.989 28.1967 134.214 29.4175C135.435 30.6422 136.91 31.2525 138.639 31.2525C140.365 31.2525 141.84 30.6422 143.064 29.4175C144.285 28.1967 144.896 26.7216 144.896 24.9922C144.896 23.2668 144.285 21.7916 143.064 20.5708C141.84 19.3462 140.365 18.7358 138.639 18.7358Z" fill="white"/>
<path d="M124.894 30.02C124.882 30.3663 124.764 30.6597 124.53 30.8886C124.301 31.1234 124.007 31.2407 123.661 31.2525C123.315 31.2407 123.021 31.1234 122.793 30.8886C122.558 30.6597 122.44 30.3663 122.429 30.02C122.44 29.6737 122.558 29.3803 122.793 29.1513C123.021 28.9166 123.315 28.7992 123.661 28.7875C124.007 28.7992 124.301 28.9166 124.53 29.1513C124.764 29.3803 124.882 29.6737 124.894 30.02Z" fill="white"/>
<path fill-rule="evenodd" clip-rule="evenodd" d="M23.7037 19.639C19.2901 24.0552 12.7871 23.1243 4.78884 21.9727C3.13977 21.3996 1.54995 20.7153 0.0809099 19.9572C-0.0553094 31.8098 -0.346793 36.831 2.43994 40.9692C4.32556 43.7694 7.62078 46.1653 13.3272 50C13.3272 50 13.2316 49.8031 13.232 49.4407L13.253 34.3429C27.107 32.4132 27.49 30.1784 26.7463 14.8133C26.6515 16.8674 25.0553 18.2865 23.7037 19.639L23.7037 19.639Z" fill="#5EC5D9"/>
<path fill-rule="evenodd" clip-rule="evenodd" d="M4.78882 4.31056V21.9727C11.7853 24.4043 19.8464 24.8343 24.2602 20.4181C25.6119 19.0655 26.6515 16.8674 26.7463 14.8133C26.7272 14.4172 26.7093 14.0358 26.6949 13.6721C26.5814 12.889 26.299 12.1584 25.8073 11.5432C25.0969 10.6542 23.711 10.4907 20.2643 10.0509C20.0889 10.0286 19.9141 10.0069 19.7401 9.98596C18.5274 8.62016 16.9786 8.86925 15.6589 8.74205C10.8856 8.28157 7.63031 8.14816 5.9571 5.4427C5.69418 5.01781 4.88308 4.56865 4.78886 4.31055L4.78882 4.31056Z" fill="#DFF3F7"/>
<path fill-rule="evenodd" clip-rule="evenodd" d="M15.5848 9.55829C16.9045 9.68558 18.298 9.81248 19.7401 9.98599C19.8083 8.82888 19.8696 7.55238 19.9328 6.30666C20.2666 -0.286304 21.3953 -0.618289 13.6763 0.484997C10.8558 0.888142 8.09887 1.68661 5.79175 3.33558C4.72284 4.09937 4.47366 4.39937 5.12529 5.73641C6.63623 8.83657 12.8398 9.29354 15.5848 9.55827L15.5848 9.55829Z" fill="#5EC5D9"/>
</g>
<defs>
<clipPath id="clip0_1432_221">
<rect width="144.895" height="50" fill="white"/>
</clipPath>
</defs>
</svg>
