<svg width="145" height="50" viewBox="0 0 145 50" fill="none" xmlns="http://www.w3.org/2000/svg">
<g clip-path="url(#clip0_206_658)">
<path d="M41.0729 29.1083C42.2194 29.1083 43.1936 28.7053 43.9956 27.8954C44.8056 27.0855 45.2086 26.1112 45.2086 24.9726C45.2086 23.8262 44.8056 22.8481 43.9956 22.0382C43.1936 21.2321 42.2194 20.833 41.0729 20.833C39.9265 20.833 38.9483 21.2321 38.1384 22.0382C37.3363 22.8481 36.9333 23.8262 36.9333 24.9726C36.9333 26.1112 37.3363 27.0855 38.1384 27.8954C38.9483 28.7053 39.9265 29.1083 41.0729 29.1083ZM35.8574 35.9633C35.5717 35.9633 35.3291 35.8616 35.1217 35.6542C34.9144 35.4469 34.8126 35.2042 34.8126 34.9187V24.9726C34.8204 23.2432 35.4348 21.772 36.6595 20.5591C37.8724 19.3423 39.3435 18.7358 41.0729 18.7358C42.7984 18.7358 44.2735 19.3462 45.4943 20.5708C46.7189 21.7916 47.3293 23.2668 47.3293 24.9922C47.3293 26.7216 46.7189 28.1967 45.4943 29.4175C44.2735 30.6422 42.7984 31.2525 41.0729 31.2525C39.4883 31.2525 38.111 30.7282 36.9333 29.6835V34.9187C36.9333 35.2043 36.8315 35.4469 36.6242 35.6542C36.4169 35.8616 36.1742 35.9633 35.8886 35.9633H35.8574L35.8574 35.9633Z" fill="#000A66"/>
<path d="M55.5379 18.7359C57.2634 18.7359 58.7385 19.3462 59.9592 20.5709C61.1839 21.7916 61.7943 23.2668 61.7943 24.9922V30.2078C61.7943 30.5012 61.6925 30.7438 61.4851 30.9434C61.2778 31.1508 61.0352 31.2525 60.7535 31.2525H60.7183C60.4366 31.2525 60.1901 31.1508 59.9827 30.9434C59.7792 30.7438 59.6736 30.5012 59.6736 30.2078V29.6835C58.4881 30.7282 57.1108 31.2525 55.5379 31.2525C53.8085 31.2525 52.3335 30.6422 51.1127 29.4175C49.888 28.1967 49.2776 26.7216 49.2776 24.9922C49.2776 23.2668 49.888 21.7916 51.1127 20.5708C52.3335 19.3462 53.8085 18.7358 55.5379 18.7358L55.5379 18.7359ZM55.5379 20.8565C54.3915 20.8565 53.4133 21.2596 52.6034 22.0695C51.8013 22.8794 51.3983 23.8537 51.3983 24.9922C51.3983 26.1386 51.8013 27.1168 52.6034 27.9267C53.4133 28.7288 54.3915 29.1318 55.5379 29.1318C56.6844 29.1318 57.6586 28.7288 58.4606 27.9267C59.2706 27.1168 59.6736 26.1386 59.6736 24.9922C59.6736 23.8537 59.2706 22.8794 58.4606 22.0695C57.6586 21.2596 56.6844 20.8565 55.5379 20.8565Z" fill="#000A66"/>
<path d="M65.5897 18.7357C65.8792 18.7357 66.1218 18.8375 66.3214 19.0449C66.5287 19.2522 66.6305 19.4987 66.6305 19.7882V30.2077C66.6305 30.5011 66.5287 30.7437 66.3214 30.9433C66.1218 31.1506 65.8792 31.2524 65.5897 31.2524H65.5662C65.2767 31.2524 65.0263 31.1506 64.8189 30.9433C64.6155 30.7437 64.5098 30.5011 64.5098 30.2077V19.7882C64.5098 19.4987 64.6155 19.2522 64.8189 19.0449C65.0263 18.8375 65.2767 18.7357 65.5662 18.7357H65.5897ZM65.578 16.5564C65.2258 16.5564 64.9285 16.435 64.682 16.1886C64.4393 15.946 64.3181 15.6486 64.3181 15.2965C64.3181 14.9522 64.4393 14.6588 64.682 14.4122C64.9285 14.1696 65.2258 14.0483 65.578 14.0483C65.9223 14.0483 66.2157 14.1696 66.4583 14.4122C66.7127 14.6588 66.8379 14.9522 66.8379 15.2965C66.8379 15.6486 66.7127 15.946 66.4583 16.1886C66.2157 16.435 65.9223 16.5564 65.578 16.5564Z" fill="#000A66"/>
<path d="M75.2775 20.8799C74.1311 20.8799 73.1529 21.2829 72.343 22.0928C71.5409 22.9027 71.1379 23.8809 71.1379 25.0273C71.1379 26.166 71.5409 27.1402 72.343 27.9501C73.1529 28.7601 74.1311 29.1669 75.2775 29.1669C76.4239 29.1669 77.3982 28.7601 78.2003 27.9501C79.0103 27.1402 79.4132 26.166 79.4132 25.0273C79.4132 23.8809 79.0103 22.9027 78.2003 22.0928C77.3982 21.2829 76.4239 20.8799 75.2775 20.8799V20.8799ZM80.4931 14.0366C80.7748 14.0366 81.0175 14.1345 81.2247 14.334C81.4321 14.5414 81.5339 14.7879 81.5339 15.0774V25.0273C81.526 26.749 80.9118 28.2162 79.691 29.4291C78.4664 30.646 76.9952 31.2524 75.2775 31.2524C73.5482 31.2524 72.0731 30.6421 70.8523 29.4174C69.6277 28.1966 69.0172 26.7215 69.0172 24.9921C69.0172 23.2667 69.6277 21.7915 70.8523 20.5708C72.0731 19.3461 73.5482 18.7358 75.2775 18.7358C76.8504 18.7358 78.2316 19.2601 79.4132 20.3047V15.0774C79.4132 14.7879 79.5189 14.5414 79.7223 14.334C79.9297 14.1345 80.1762 14.0366 80.458 14.0366H80.4931L80.4931 14.0366Z" fill="#000A66"/>
<path d="M90.0866 18.7359C91.8122 18.7359 93.2872 19.3462 94.508 20.5709C95.7327 21.7916 96.343 23.2668 96.343 24.9922V30.2078C96.343 30.5012 96.2413 30.7438 96.0339 30.9434C95.8266 31.1508 95.5839 31.2525 95.3023 31.2525H95.2671C94.9853 31.2525 94.7388 31.1508 94.5314 30.9434C94.328 30.7438 94.2223 30.5012 94.2223 30.2078V29.6835C93.0368 30.7282 91.6595 31.2525 90.0866 31.2525C88.3573 31.2525 86.8822 30.6422 85.6615 29.4175C84.4368 28.1967 83.8264 26.7216 83.8264 24.9922C83.8264 23.2668 84.4368 21.7916 85.6615 20.5708C86.8822 19.3462 88.3573 18.7358 90.0866 18.7358L90.0866 18.7359ZM90.0866 20.8565C88.9402 20.8565 87.9621 21.2596 87.1522 22.0695C86.3501 22.8794 85.947 23.8537 85.947 24.9922C85.947 26.1386 86.3501 27.1168 87.1522 27.9267C87.9621 28.7288 88.9402 29.1318 90.0866 29.1318C91.2331 29.1318 92.2073 28.7288 93.0094 27.9267C93.8194 27.1168 94.2223 26.1386 94.2223 24.9922C94.2223 23.8537 93.8194 22.8794 93.0094 22.0695C92.2073 21.2596 91.2331 20.8565 90.0866 20.8565Z" fill="#000A66"/>
<path d="M104.552 20.8799C103.406 20.8799 102.427 21.2829 101.617 22.0928C100.815 22.9027 100.412 23.8809 100.412 25.0273C100.412 26.166 100.815 27.1402 101.617 27.9501C102.427 28.7601 103.406 29.1669 104.552 29.1669C105.698 29.1669 106.673 28.7601 107.475 27.9501C108.285 27.1402 108.688 26.166 108.688 25.0273C108.688 23.8809 108.285 22.9027 107.475 22.0928C106.673 21.2829 105.698 20.8799 104.552 20.8799V20.8799ZM109.768 14.0366C110.049 14.0366 110.292 14.1345 110.499 14.334C110.707 14.5414 110.808 14.7879 110.808 15.0774V25.0273C110.801 26.749 110.186 28.2162 108.966 29.4291C107.741 30.646 106.27 31.2524 104.552 31.2524C102.823 31.2524 101.348 30.6421 100.127 29.4174C98.9021 28.1966 98.2917 26.7215 98.2917 24.9921C98.2917 23.2667 98.9021 21.7915 100.127 20.5708C101.348 19.3461 102.823 18.7358 104.552 18.7358C106.125 18.7358 107.506 19.2601 108.688 20.3047V15.0774C108.688 14.7879 108.793 14.5414 108.997 14.334C109.204 14.1345 109.451 14.0366 109.732 14.0366H109.768L109.768 14.0366Z" fill="#000A66"/>
<path d="M116.309 20.8565C115.883 20.8565 115.519 21.0052 115.222 21.3026C114.924 21.6078 114.776 21.9716 114.776 22.3903C114.776 22.9889 115.057 23.435 115.625 23.7324C115.797 23.8263 116.458 24.0218 117.605 24.327C118.461 24.5735 119.087 24.8866 119.486 25.27C120.05 25.8021 120.336 26.5807 120.336 27.5941C120.336 28.6036 119.98 29.4683 119.267 30.1882C118.551 30.8964 117.687 31.2525 116.677 31.2525H113.684C113.402 31.2525 113.16 31.1507 112.952 30.9434C112.745 30.7438 112.643 30.5012 112.643 30.2078V30.1882C112.643 29.8948 112.745 29.6483 112.952 29.4409C113.16 29.2335 113.402 29.1318 113.684 29.1318H116.791C117.221 29.1318 117.581 28.9832 117.882 28.6858C118.18 28.3884 118.328 28.0245 118.328 27.5941C118.328 27.0307 118.047 26.6081 117.479 26.3343C117.35 26.2755 116.689 26.076 115.496 25.7396C114.647 25.4852 114.02 25.1644 113.618 24.777C113.05 24.2175 112.768 23.4232 112.768 22.3903C112.768 21.3847 113.124 20.5239 113.833 19.8119C114.553 19.0958 115.417 18.7358 116.427 18.7358H118.536C118.825 18.7358 119.072 18.8376 119.279 19.045C119.486 19.2524 119.588 19.4988 119.588 19.7883V19.8119C119.588 20.1013 119.486 20.3478 119.279 20.5474C119.072 20.7509 118.825 20.8565 118.536 20.8565H116.309V20.8565Z" fill="#000A66"/>
<path d="M128.951 18.7357C129.241 18.7357 129.483 18.8375 129.683 19.0449C129.89 19.2522 129.992 19.4987 129.992 19.7882V30.2077C129.992 30.5011 129.89 30.7437 129.683 30.9433C129.483 31.1506 129.241 31.2524 128.951 31.2524H128.928C128.638 31.2524 128.388 31.1506 128.18 30.9433C127.977 30.7437 127.871 30.5011 127.871 30.2077V19.7882C127.871 19.4987 127.977 19.2522 128.18 19.0449C128.388 18.8375 128.638 18.7357 128.928 18.7357H128.951ZM128.94 16.5564C128.587 16.5564 128.29 16.435 128.044 16.1886C127.801 15.946 127.68 15.6486 127.68 15.2965C127.68 14.9522 127.801 14.6588 128.044 14.4122C128.29 14.1696 128.587 14.0483 128.94 14.0483C129.284 14.0483 129.577 14.1696 129.82 14.4122C130.074 14.6588 130.199 14.9522 130.199 15.2965C130.199 15.6486 130.074 15.946 129.82 16.1886C129.577 16.435 129.284 16.5564 128.94 16.5564Z" fill="#000A66"/>
<path d="M138.639 20.88C139.785 20.88 140.76 21.283 141.562 22.0929C142.372 22.9028 142.775 23.881 142.775 25.0274C142.775 26.1661 142.372 27.1402 141.562 27.9501C140.76 28.7601 139.785 29.167 138.639 29.167C137.493 29.167 136.514 28.7601 135.705 27.9501C134.902 27.1402 134.499 26.1661 134.499 25.0274C134.499 23.881 134.902 22.9028 135.705 22.0929C136.514 21.283 137.493 20.88 138.639 20.88V20.88ZM138.639 18.7358C136.91 18.7358 135.435 19.3462 134.214 20.5708C132.989 21.7916 132.379 23.2668 132.379 24.9922C132.379 26.7216 132.989 28.1967 134.214 29.4175C135.435 30.6422 136.91 31.2525 138.639 31.2525C140.365 31.2525 141.84 30.6422 143.064 29.4175C144.285 28.1967 144.895 26.7216 144.895 24.9922C144.895 23.2668 144.285 21.7916 143.064 20.5708C141.84 19.3462 140.365 18.7358 138.639 18.7358Z" fill="#000A66"/>
<path d="M124.894 30.0201C124.882 30.3664 124.765 30.6598 124.53 30.8887C124.301 31.1235 124.007 31.2409 123.661 31.2526C123.315 31.2409 123.021 31.1235 122.793 30.8887C122.558 30.6598 122.441 30.3664 122.429 30.0201C122.44 29.6738 122.558 29.3804 122.793 29.1515C123.021 28.9167 123.315 28.7993 123.661 28.7876C124.007 28.7993 124.301 28.9167 124.53 29.1515C124.765 29.3804 124.882 29.6738 124.894 30.0201Z" fill="#000A66"/>
<path fill-rule="evenodd" clip-rule="evenodd" d="M23.7037 19.639C19.29 24.0551 12.7871 23.1242 4.78881 21.9726C3.13974 21.3996 1.54992 20.7153 0.0808794 19.9571C-0.0553399 31.8098 -0.346824 36.831 2.43991 40.9692C4.32553 43.7693 7.62075 46.1652 13.3271 49.9999C13.3271 49.9999 13.2316 49.8031 13.232 49.4406L13.2529 34.3428C27.1069 32.4132 27.4899 30.1784 26.7463 14.8132C26.6514 16.8673 25.0553 18.2865 23.7036 19.6389L23.7037 19.639Z" fill="#5EC5D9"/>
<path fill-rule="evenodd" clip-rule="evenodd" d="M4.78885 4.31056V21.9727C11.7853 24.4043 19.8464 24.8343 24.2602 20.4181C25.612 19.0655 26.6515 16.8674 26.7463 14.8133C26.7272 14.4172 26.7094 14.0358 26.6949 13.6721C26.5815 12.889 26.299 12.1584 25.8073 11.5432C25.097 10.6542 23.711 10.4907 20.2644 10.0509C20.0889 10.0286 19.9141 10.0069 19.7401 9.98596C18.5274 8.62016 16.9786 8.86925 15.659 8.74205C10.8856 8.28157 7.63034 8.14816 5.95713 5.4427C5.69421 5.01781 4.88311 4.56865 4.78889 4.31055L4.78885 4.31056Z" fill="#DFF3F7"/>
<path fill-rule="evenodd" clip-rule="evenodd" d="M15.5847 9.55822C16.9044 9.68552 18.298 9.81242 19.7401 9.98593C19.8082 8.82882 19.8696 7.55232 19.9327 6.3066C20.2665 -0.286366 21.3953 -0.61835 13.6763 0.484936C10.8558 0.888081 8.09881 1.68655 5.79169 3.33552C4.72278 4.09931 4.4736 4.39931 5.12522 5.73635C6.63617 8.83651 12.8397 9.29348 15.5847 9.55821L15.5847 9.55822Z" fill="#5EC5D9"/>
</g>
<defs>
<clipPath id="clip0_206_658">
<rect width="144.895" height="50" fill="white"/>
</clipPath>
</defs>
</svg>
