<svg width="93" height="78" viewBox="0 0 93 78" fill="none" xmlns="http://www.w3.org/2000/svg">
<path d="M92.5561 19.5119C92.2441 20.0399 92.2441 20.6399 92.1001 21.2159C90.1321 28.0319 85.6681 32.0879 78.6602 33.3839C78.0361 33.5039 77.4122 33.5279 76.7882 33.5279C71.9642 33.5279 67.1642 33.5279 62.3402 33.5279C61.9562 33.5279 61.4521 33.3839 61.4521 34.0559C61.0201 34.0079 61.0922 33.6479 61.0202 33.3839C60.1802 30.3599 58.7882 27.6239 56.8682 25.1279C56.6282 24.8159 56.0522 24.4559 56.7002 23.9759C57.6122 23.7839 58.5482 23.8799 59.4602 23.8799C62.0282 23.8799 64.5962 23.8319 67.1402 23.9039C67.2361 23.9039 67.3322 23.9279 67.4282 23.9759C67.9562 24.2399 68.4121 24.6479 68.8921 25.0079C73.1161 28.0319 78.7322 27.5039 82.2842 23.7359C83.5562 22.3919 84.4201 20.7839 84.7561 18.9359C84.8041 18.6959 84.9002 18.4799 85.0442 18.2879C87.3001 15.7199 88.5961 12.7199 88.8601 9.2879C88.9081 8.5919 89.0521 7.9199 89.0761 7.2479C89.0761 7.0319 89.1001 6.7439 89.4601 6.7439C91.0201 8.9039 92.0281 11.3039 92.3641 13.9679C92.3881 14.0639 92.4601 14.1599 92.5321 14.2799C92.5561 16.0319 92.5561 17.7839 92.5561 19.5119Z" fill="#BDD7FA"/>
<path d="M67.4521 24.1679C63.7801 24.1679 60.1081 24.1919 56.4601 24.1919C55.9561 24.2399 55.7161 23.8559 55.4521 23.5679C51.7801 19.6319 47.2441 17.3039 41.9161 16.6079C34.5961 15.6719 28.2121 17.8559 22.8121 22.8959C22.2601 23.4239 21.8281 24.0959 21.0361 24.3839C17.1001 24.4319 13.1401 24.7919 9.27609 23.7839C5.98809 22.9439 3.30009 21.1439 1.04409 18.5999C0.852093 18.3839 0.756093 18.1439 0.612093 17.9279C0.396093 14.1599 1.14009 10.6319 3.22809 7.43994C5.96409 3.28794 9.87609 0.959939 14.7241 0.167939C15.0841 0.119939 15.4441 0.14394 15.8041 0.14394C36.3001 0.14394 56.7721 0.119939 77.2681 0.167939C80.6281 0.167939 83.6041 1.46394 86.2681 3.47994C87.5161 4.41594 88.5481 5.56794 89.4841 6.81594C89.2201 7.72794 89.2201 8.68794 89.1241 9.59994C88.8361 12.7919 87.6121 15.5759 85.6441 18.0719C85.5241 18.2399 85.3321 18.3359 85.1641 18.4799C84.7801 18.0479 84.9241 17.5199 84.9241 17.0159C84.9481 12.6959 82.9801 9.59994 79.1641 7.67994C74.6041 5.39994 68.8201 7.15194 66.1801 11.5679C63.9241 15.3599 64.2601 19.8479 67.0441 23.2799C67.3081 23.5199 67.6441 23.7359 67.4521 24.1679Z" fill="#CAE1FE"/>
<path d="M21.156 24.2159C23.652 21.5039 26.508 19.2959 29.964 17.9039C39.036 14.2079 49.116 16.4159 55.836 23.5679C56.028 23.7839 56.268 23.9759 56.46 24.1919C58.86 27.1199 60.564 30.3839 61.5 34.0559C62.316 38.0159 62.316 41.9519 61.164 45.8399C60.42 48.3599 59.34 50.6879 57.78 52.7999C57.396 53.3279 57.444 53.5919 57.9 54.0479C59.316 55.3919 60.66 56.7839 62.052 58.1519C62.004 58.9199 61.26 59.1599 60.9 59.6879C60.588 59.9519 60.348 60.3359 59.892 60.4079C59.508 60.3599 59.292 60.0479 59.028 59.8079C58.044 58.8239 57.036 57.8639 56.076 56.8319C55.572 56.3039 55.236 56.1839 54.636 56.7359C54.132 57.1919 53.676 57.8159 52.908 57.9359C48.444 61.2239 43.452 62.7839 37.884 62.6399C27.204 62.3759 17.532 53.8799 15.9 43.3199C15.42 40.1759 15.468 37.0559 16.236 33.9599C16.26 33.8159 16.26 33.6719 16.284 33.5039C16.164 32.6399 16.62 31.8719 16.884 31.1039C17.724 28.8239 18.924 26.7359 20.436 24.8159C20.604 24.5759 20.844 24.3599 21.156 24.2159Z" fill="#2B4D66"/>
<path d="M21.156 24.216C18.876 26.976 17.268 30.096 16.26 33.528C12.54 33.408 9.3 32.088 6.444 29.736C3.084 26.952 1.30801 23.304 0.660005 19.08C0.612005 18.696 0.660005 18.312 0.660005 17.928C2.12401 19.176 3.34801 20.712 5.05201 21.696C7.28401 22.992 9.66001 23.808 12.252 24.048C15.204 24.312 18.18 24.048 21.156 24.216Z" fill="#BDD7FA"/>
<path d="M59.9161 60.288C60.2041 60.048 60.4921 59.784 60.7801 59.544C61.2121 59.448 61.4281 59.784 61.6681 60.024C64.8361 63.192 67.9801 66.36 71.1721 69.504C73.1881 71.496 73.7881 74.448 72.1561 76.92C71.9641 77.208 71.8921 77.448 72.1561 77.712C70.5961 77.9039 69.1801 77.472 68.0761 76.392C64.3321 72.72 60.6601 69 56.9641 65.304C56.3161 64.632 56.3401 64.032 56.9641 63.336C57.1801 63.096 57.3961 62.856 57.6121 62.592C58.1641 61.656 58.9321 60.864 59.9161 60.288Z" fill="#7FB3FA"/>
<path d="M72.132 77.7359C71.916 77.7119 71.724 77.688 71.436 77.6639C71.676 77.2799 71.916 76.9199 72.108 76.5599C73.356 74.3279 73.092 71.9039 71.244 69.9839C67.86 66.528 64.404 63.1199 60.996 59.7119C60.924 59.6399 60.852 59.616 60.78 59.568C61.188 59.088 61.62 58.6319 62.028 58.1519C63.876 56.6159 63.876 56.6159 65.604 58.3439C68.916 61.6559 72.252 64.9439 75.54 68.2799C78.54 71.3279 77.268 76.2479 73.188 77.5439C72.828 77.6639 72.492 77.7119 72.132 77.7359Z" fill="#61A1F8"/>
<path d="M59.9162 60.2879C59.1722 61.1039 58.4282 61.8959 57.5882 62.5919C56.0282 61.0319 54.4682 59.4719 52.9082 57.9119C53.5322 57.3839 54.2282 56.8799 54.8042 56.2799C55.2602 55.7759 55.5242 55.9199 55.9322 56.3279C57.2042 57.6959 58.5482 58.9919 59.9162 60.2879Z" fill="#365E7D"/>
<path d="M67.4521 24.168C66.9961 23.544 66.5161 22.944 66.1081 22.296C62.6761 16.992 64.9801 9.64799 70.8601 7.19999C77.1481 4.58399 84.2041 8.56799 85.1641 15.288C85.3081 16.32 85.1881 17.376 85.2121 18.432C85.1401 18.6 85.0921 18.792 85.0201 18.96C83.7001 20.832 81.8041 21.936 79.7881 22.896C77.4601 24.024 74.9401 24.336 72.3961 24.408C71.1721 24.432 69.9481 24.408 68.7241 24.408C68.3401 24.408 67.9561 24.408 67.6201 24.144C67.5721 24.168 67.5001 24.168 67.4521 24.168Z" fill="#B2E49E"/>
<path d="M67.6201 24.1919C69.2041 24.1919 70.7881 24.1919 72.3481 24.1919C77.1001 24.1679 81.2521 22.6319 84.6601 19.2479C84.7561 19.1519 84.9001 19.0559 85.0201 18.9839C84.4441 22.8479 80.6281 26.4959 76.6921 27.0719C73.4041 27.5519 70.5721 26.7119 68.0281 24.6479C67.8601 24.5039 67.7401 24.3359 67.6201 24.1919Z" fill="#94D5A3"/>
<path d="M9.10802 18.2639C8.19602 18.2399 7.57202 17.6159 7.62002 16.7279C7.66802 15.9119 8.43602 15.1679 9.20402 15.2159C9.97202 15.2399 10.716 16.0319 10.692 16.8239C10.644 17.7119 10.044 18.2879 9.10802 18.2639Z" fill="#80B4FA"/>
<path d="M14.9641 18.2639C14.0521 18.2639 13.3801 17.6399 13.3801 16.7999C13.3801 15.9599 14.1721 15.1919 15.0121 15.2159C15.8761 15.2639 16.4521 15.9119 16.4281 16.8479C16.4281 17.7359 15.8521 18.2639 14.9641 18.2639Z" fill="#80B4FA"/>
<path d="M20.7481 18.2639C19.8601 18.2639 19.2841 17.7359 19.2841 16.8479C19.2601 15.8879 19.9081 15.1919 20.7721 15.2159C21.5881 15.2399 22.3081 15.9599 22.3321 16.7759C22.3321 17.5919 21.6121 18.2639 20.7481 18.2639Z" fill="#80B4FA"/>
<path d="M21.3722 50.064C18.2042 44.856 17.5082 39.336 19.2362 33.504C19.6202 33.216 20.0762 33.24 20.5322 33.24C31.6922 33.24 42.8282 33.24 53.9882 33.24C54.3242 33.24 54.6362 33.24 54.9722 33.336C55.7402 33.768 55.4762 34.488 55.4042 35.088C55.1162 37.08 54.5642 39 53.7242 40.824C51.7082 45.264 48.5642 48.72 44.3402 51.096C41.2202 52.848 37.8602 53.784 34.2602 53.88C30.2762 53.976 26.5562 53.136 23.0522 51.264C22.4042 50.952 21.8522 50.568 21.3722 50.064Z" fill="#CAE1FE"/>
<path d="M55.212 33.5279C43.644 33.5279 32.076 33.5279 20.508 33.5279C20.1 33.5279 19.668 33.5039 19.26 33.5039C20.34 29.7119 22.404 26.5439 25.404 23.9999C25.788 23.9279 26.172 23.9039 26.556 23.9039C34.62 23.9039 42.684 23.9039 50.748 23.9039C51.324 23.9039 51.876 23.9279 52.404 24.1919C53.388 24.9119 54.18 25.8239 54.876 26.8319C55.692 28.9919 55.86 31.1999 55.476 33.4559C55.428 33.5519 55.332 33.5759 55.212 33.5279Z" fill="#9CC5FA"/>
<path d="M55.2121 33.5279C55.2841 33.5279 55.3321 33.5279 55.4041 33.5039C56.4121 33.0959 57.4201 33.0719 58.4041 33.5279C60.6361 40.6079 58.6922 49.0799 52.4282 54.6719C43.1642 62.9759 28.5481 61.0799 21.7081 50.6879C21.5881 50.4959 21.4681 50.2799 21.3481 50.0639C23.9161 51.6239 26.6041 52.8239 29.6041 53.3279C33.8281 54.0239 37.9081 53.6399 41.8681 52.0319C46.2361 50.2559 49.6441 47.2559 52.1161 43.2959C53.9641 40.3439 55.2121 37.1039 55.2121 33.5279Z" fill="#BDD7FA"/>
<path d="M52.4041 24.1679C43.6441 24.1679 34.8841 24.1679 26.1481 24.1919C25.8841 24.1919 25.5961 24.2639 25.4041 23.9999C28.2361 21.4079 31.5961 19.8239 35.3401 19.2239C41.4361 18.2399 46.9321 19.6799 51.7801 23.5439C51.996 23.7359 52.1881 23.9519 52.4041 24.1679Z" fill="#BDD7FA"/>
<path d="M58.4041 33.528C57.3961 33.528 56.3881 33.528 55.4041 33.504C55.5241 31.248 55.2601 29.016 54.9001 26.808C56.5801 28.776 57.6841 31.056 58.4041 33.528Z" fill="#7FB3FA"/>
<path d="M71.0522 15.3839C71.8922 15.4319 72.3242 16.0079 72.7562 16.5119C73.3082 17.1599 73.6922 17.2079 74.2682 16.5359C75.1562 15.5279 76.1402 14.6159 77.1002 13.6799C77.7002 13.0799 78.5402 13.0319 79.1162 13.5359C79.6682 14.0159 79.7642 14.9039 79.1402 15.5279C77.6042 17.1359 76.0442 18.6959 74.4602 20.2079C73.8602 20.7839 73.1162 20.7359 72.5162 20.1839C71.6762 19.3919 70.8602 18.5519 70.0442 17.7119C69.5882 17.2319 69.6122 16.6559 69.8522 16.1279C70.0922 15.6719 70.5482 15.4319 71.0522 15.3839Z" fill="#F3FAFE"/>
</svg>
