<svg width="120" height="80" viewBox="0 0 120 80" fill="none" xmlns="http://www.w3.org/2000/svg">
<path d="M120.47 13.1766C120.47 33.4373 120.47 53.698 120.47 73.9586C119.742 76.1728 118.559 77.0523 116.193 77.1433C115.738 77.1737 115.253 77.1433 114.798 77.1433C78.6138 77.1433 42.4296 77.1433 6.24551 77.1433C5.79055 77.1433 5.30527 77.1433 4.85031 77.1433C2.45421 77.0523 1.27133 76.1728 0.57373 73.9586C0.57373 53.698 0.57373 33.4373 0.57373 13.1766C1.21067 12.661 1.9386 12.8126 2.6362 12.8126C10.977 12.8126 19.3179 12.8126 27.6284 12.8126C57.7465 12.8126 87.8949 12.8126 118.013 12.8126C118.832 12.8126 119.711 12.6003 120.47 13.1766Z" fill="#E5EAF1"/>
<path d="M120.47 13.1766C120.136 13.1766 119.802 13.207 119.469 13.207C80.1607 13.207 40.8829 13.207 1.57469 13.207C1.24105 13.207 0.907421 13.1766 0.573787 13.1766C0.573787 10.3559 0.543457 7.50485 0.543457 4.68413C0.543457 2.04538 2.09031 0.498535 4.72905 0.498535C20.1672 0.498535 35.6357 0.498535 51.0739 0.498535C72.6994 0.498535 94.325 0.498535 115.951 0.498535C119.105 0.498535 120.5 1.89373 120.5 5.04809C120.5 7.74749 120.47 10.4469 120.47 13.1766Z" fill="#3E465F"/>
<path d="M0.543374 73.9587C1.6656 76.2638 3.54608 76.7794 5.97251 76.7794C42.3386 76.7187 78.7047 76.7187 115.041 76.7794C117.467 76.7794 119.347 76.2638 120.47 73.9587C120.47 74.5653 120.5 75.1416 120.47 75.7482C120.348 77.6893 118.892 79.1452 116.982 79.2968C116.557 79.3271 116.132 79.2968 115.708 79.2968C79.0687 79.2968 42.4599 79.2665 5.82086 79.3575C2.12055 79.3575 0.179409 77.9319 0.543374 73.9587Z" fill="#B3C2D8"/>
<path d="M8.15631 4.25952C9.6425 4.25952 10.7344 5.35141 10.7041 6.80727C10.6737 8.17214 9.5515 9.20337 8.12597 9.17304C6.76111 9.14271 5.69954 8.11148 5.63888 6.80727C5.57822 5.38174 6.67012 4.25952 8.15631 4.25952Z" fill="#E57345"/>
<path d="M28.4472 9.1731C27.0217 9.14277 25.8995 8.0812 25.9601 6.71634C26.0208 5.23015 27.0823 4.22925 28.5989 4.25958C30.0244 4.28991 31.0253 5.35147 31.0253 6.777C31.0253 8.17219 29.9031 9.20343 28.4472 9.1731Z" fill="#2BAAA9"/>
<path d="M18.2865 9.23372C16.8913 9.20339 15.7691 8.1115 15.7994 6.74663C15.7994 5.29078 16.952 4.22921 18.4382 4.25954C19.8334 4.28988 20.9253 5.44243 20.8646 6.80729C20.8039 8.20249 19.712 9.23372 18.2865 9.23372Z" fill="#EAC747"/>
<path d="M38.8056 29.4547C41.6193 30.9969 44.4331 32.5119 47.2197 34.0541C47.7338 34.3246 48.2208 34.6222 48.7078 34.8928C49.5465 35.3798 49.6006 36.0832 49.1406 36.7866C47.9232 38.5452 46.6245 40.3038 45.3529 42.0083C44.8389 42.6846 44.1625 42.8199 43.3779 42.4682C42.945 42.2788 42.5392 42.0353 42.1063 41.8459C41.2135 41.4131 40.8888 41.6295 40.8618 42.6305C40.8347 43.1446 40.8347 43.6316 40.8347 44.1456C40.483 44.4973 40.0501 44.4703 39.6173 44.4703C36.1001 44.4703 32.5829 44.4703 29.0658 44.4703C28.687 44.4703 28.3353 44.4703 27.9836 44.2809C27.8754 44.1997 27.7942 44.0915 27.7401 43.9833C27.5507 43.4692 27.6048 42.9281 27.6048 42.387C27.6048 39.8168 27.6048 37.2736 27.6048 34.7034C27.6048 34.1893 27.5507 33.6753 27.7671 33.2154C27.9565 32.8907 28.2 32.9989 28.4435 33.1613C28.7411 33.3777 28.9846 33.6482 29.2552 33.8917C30.9596 35.3798 32.4206 35.4068 34.1792 33.9729C35.5049 32.6472 36.9118 31.4027 38.1022 29.9688C38.2916 29.7523 38.508 29.5629 38.8056 29.4547Z" fill="#676788"/>
<path d="M40.8347 47.2299C40.8347 50.233 40.8618 53.2362 40.8618 56.2393C40.8618 57.3756 40.3207 57.8896 39.0491 57.9167C37.5069 57.9437 35.9377 57.9167 34.3956 57.9167C31.149 57.9167 27.9294 57.9437 24.6828 57.9437C24.3311 57.9437 23.9253 58.052 23.6277 57.7814C23.9794 57.3756 24.4934 57.4567 24.9534 57.4567C26.0085 57.4297 27.0907 57.4838 28.2541 57.4026C27.5507 56.3745 27.6048 55.3194 27.6048 54.2372C27.6048 52.3433 27.6048 50.4765 27.6048 48.5827C27.6048 48.0957 27.5507 47.5546 27.9565 47.1488C28.4164 46.8512 28.9305 46.9053 29.4175 46.9053C32.7182 46.9053 36.0189 46.9053 39.2926 46.9053C39.8066 46.9053 40.3748 46.7971 40.8347 47.2299Z" fill="#676788"/>
<path d="M28.0916 33.0529C27.767 33.3505 27.9022 33.7563 27.9022 34.108C27.9022 37.4087 27.9022 40.6824 27.9022 43.9831C27.6587 44.1996 27.3882 44.2807 27.0906 44.2807C25.9002 44.3078 24.7097 44.3078 23.4923 44.2807C23.1947 44.2807 22.897 44.1996 22.6806 43.9831C22.6806 43.5232 22.6806 43.0362 22.6536 42.5763C22.6265 41.7105 22.3018 41.5211 21.4902 41.8728C21.4361 41.8999 21.382 41.9269 21.3008 41.954C19.3258 42.9821 19.0823 43.442 17.2966 40.9529C16.3768 39.6543 15.4298 38.4098 14.537 37.1111C13.7524 36.0019 13.8877 35.4067 15.0511 34.7573C17.8648 33.1881 20.6785 31.619 23.5193 30.0498C23.9522 29.8063 24.3851 29.5087 24.8991 29.4275C24.9532 29.4545 24.9803 29.4816 25.0344 29.4816C25.8731 30.4015 26.793 31.2402 27.6587 32.1601C27.8481 32.3765 28.2269 32.5929 28.0916 33.0529Z" fill="#51506D"/>
<path d="M27.9022 47.2297C27.9022 49.7729 27.9293 52.3431 27.9022 54.8863C27.8752 55.9144 28.0646 56.8072 29.0115 57.7812C27.0635 57.7812 25.332 57.7812 23.6275 57.7812C22.9512 57.5918 22.6536 57.0778 22.6536 56.4284C22.6536 53.3712 22.6806 50.314 22.6806 47.2568C22.843 47.0674 23.0594 46.9862 23.3029 46.9862C24.7909 46.9862 26.2789 46.7698 27.767 47.1215C27.794 47.1215 27.8481 47.1756 27.9022 47.2297Z" fill="#51506D"/>
<path d="M40.8346 47.2298C36.5329 47.2298 32.204 47.2298 27.9023 47.2298C27.4424 46.2287 27.4153 45.2006 27.9023 44.1996C32.204 44.1996 36.5058 44.1996 40.8346 44.1996C40.8076 45.1736 40.8076 46.2017 40.8346 47.2298Z" fill="#7A7A9F"/>
<path d="M38.8057 29.4546C37.5341 31.1861 35.9378 32.62 34.3957 34.0539C33.0971 32.9447 31.9066 31.6731 30.7433 30.4286C30.2292 29.8875 29.7422 29.6169 28.9847 29.644C28.0107 29.6981 27.0367 29.671 26.0627 29.644C25.6569 29.644 25.2511 29.6981 24.8994 29.4275L24.8723 29.3734C25.1429 29.1029 25.4946 29.184 25.8192 29.184C29.5799 29.184 33.3406 29.184 37.1012 29.2381C37.6694 29.2652 38.2375 29.3734 38.8057 29.4546Z" fill="#51506D"/>
<path d="M27.902 44.1725C27.902 45.1735 27.902 46.2016 27.902 47.2027C26.1705 47.2027 24.4119 47.2027 22.6804 47.2027C22.6804 46.1205 22.6804 45.0383 22.6804 43.929C24.4119 43.929 26.1705 43.929 27.902 43.929C27.902 44.0372 27.902 44.1184 27.902 44.1725Z" fill="#676788"/>
<path d="M24.8993 29.4273C26.4685 29.4273 28.0647 29.4003 29.6339 29.4003C29.9044 29.4003 30.2021 29.3462 30.3914 29.5896C31.5277 31.0506 32.9887 32.214 34.2062 33.5938C34.3144 33.702 34.3144 33.8914 34.3956 34.0537C32.9617 35.65 30.9325 35.7041 29.2281 34.2161C28.8222 33.8643 28.4976 33.4315 28.1188 33.0527C27.253 32.1328 26.3602 31.24 25.4945 30.3201C25.2239 30.0496 24.8451 29.8873 24.8993 29.4273Z" fill="#3D3D5B"/>
<path d="M89.5991 45.0974C93.4743 45.0974 97.3011 45.0974 101.176 45.0974C103.356 45.0974 104.567 46.0963 104.616 47.9363C104.664 50.0391 103.501 51.3534 101.273 51.3534C93.4743 51.406 85.7239 51.406 77.925 51.3534C75.164 51.3534 73.6623 49.2506 74.5342 46.8323C75.1155 45.2551 76.4234 45.0974 77.6828 45.0974C81.6549 45.0448 85.627 45.0974 89.5991 45.0974Z" fill="#676788"/>
<path d="M89.5723 36.2277C93.5742 36.2277 97.6242 36.2277 101.626 36.2277C103.699 36.2277 104.519 36.945 104.615 38.559C104.664 40.1282 103.555 41.2491 101.674 41.2491C93.5259 41.2939 85.3776 41.2939 77.1809 41.2491C75.4452 41.2491 74.2398 40.0834 74.288 38.6487C74.3362 37.214 75.5898 36.2277 77.3256 36.2277C81.4239 36.2277 85.474 36.2277 89.5723 36.2277Z" fill="#676788"/>
<path d="M69.2316 48.4587C69.2316 50.3195 68.2921 51.4472 66.8159 51.3908C65.2054 51.3345 64.1765 50.2067 64.1765 48.4024C64.1765 46.598 65.2949 45.1319 66.6369 45.0756C68.0685 45.0192 69.2316 46.5416 69.2316 48.4587Z" fill="#676788"/>
<path d="M66.6378 41.2807C64.9832 41.2807 64.1335 40.3664 64.1782 38.682C64.2229 37.0939 65.0726 36.2277 66.6825 36.2277C68.3372 36.2277 69.2316 37.142 69.2316 38.8264C69.1869 40.5107 68.3819 41.3288 66.6378 41.2807Z" fill="#676788"/>
</svg>
