<svg width="116" height="38" viewBox="0 0 116 38" fill="none" xmlns="http://www.w3.org/2000/svg">
<mask id="mask0_311_202" style="mask-type:alpha" maskUnits="userSpaceOnUse" x="3" y="1" width="26" height="37">
<path d="M3.79541 37.9819H28.4498V1.12622H3.79541V37.9819Z" fill="white"/>
</mask>
<g mask="url(#mask0_311_202)">
<path fill-rule="evenodd" clip-rule="evenodd" d="M20.8989 3.3968C20.409 1.67136 18.7895 0.727153 17.2818 1.28799C15.7738 1.84853 14.9486 3.70156 15.4387 5.42671L22.8617 31.5585C23.3714 33.1702 24.8931 34.076 26.3538 33.595C27.8774 33.0931 28.8062 31.2416 28.32 29.5295C28.3015 29.4641 20.8989 3.3968 20.8989 3.3968Z" fill="#DFA22F"/>
<path fill-rule="evenodd" clip-rule="evenodd" d="M9.39725 7.67278C8.90709 5.94764 7.28758 5.00344 5.77985 5.56397C4.27185 6.12451 3.44663 7.97754 3.93679 9.70299L11.3597 35.8347C11.8694 37.4465 13.3912 38.3523 14.8519 37.871C16.3755 37.3694 17.3043 35.5179 16.8181 33.8054C16.7996 33.7404 9.39725 7.67278 9.39725 7.67278Z" fill="#3CB187"/>
</g>
<path fill-rule="evenodd" clip-rule="evenodd" d="M30.2425 25.0391C31.7505 24.4786 32.5754 22.6255 32.0855 20.9001C31.5957 19.1749 29.9761 18.2307 28.4684 18.7913L5.62989 27.2849C4.22124 27.8678 3.42959 29.6089 3.84999 31.2803C4.28862 33.0236 5.90681 34.0863 7.40318 33.53C7.46026 33.5088 30.2425 25.0391 30.2425 25.0391Z" fill="#CE1E5B"/>
<path fill-rule="evenodd" clip-rule="evenodd" d="M10.3898 32.4198C11.8764 31.8671 13.7924 31.1548 15.8484 30.3905C15.3654 28.6895 14.7428 26.497 14.0746 24.1442L8.61572 26.1744L10.3898 32.4198Z" fill="#392538"/>
<path fill-rule="evenodd" clip-rule="evenodd" d="M21.8918 28.1435C23.9555 27.3764 25.8736 26.6632 27.3504 26.1142C26.8674 24.4132 26.2446 22.22 25.5763 19.8666L20.1174 21.8968L21.8918 28.1435Z" fill="#BB242A"/>
<path fill-rule="evenodd" clip-rule="evenodd" d="M26.5053 11.8786C28.013 11.318 28.8383 9.465 28.3484 7.73956C27.8585 6.01441 26.239 5.07021 24.731 5.63074L1.89244 14.1243C0.483791 14.7073 -0.307863 16.4484 0.112802 18.1198C0.551171 19.863 2.16936 20.9258 3.666 20.3695C3.72281 20.3483 26.5053 11.8786 26.5053 11.8786Z" fill="#72C5CD"/>
<path fill-rule="evenodd" clip-rule="evenodd" d="M6.65155 19.2596C8.13814 18.7069 10.0547 17.9943 12.1109 17.23C11.4406 14.8684 10.8172 12.6737 10.3374 10.9836L4.8772 13.0142L6.65155 19.2596Z" fill="#238C73"/>
<path fill-rule="evenodd" clip-rule="evenodd" d="M18.1533 14.9836C20.2175 14.2163 22.1358 13.5031 23.6129 12.9537C22.9423 10.5918 22.319 8.39655 21.8388 6.70618L16.3789 8.73668L18.1533 14.9836Z" fill="#62803A"/>
<path fill-rule="evenodd" clip-rule="evenodd" d="M53.4089 10.2753C54.4191 10.7796 54.4926 11.1578 53.7028 12.8808C52.895 14.6459 52.6928 14.7508 51.7012 14.2885C50.4524 13.6793 48.8545 13.217 47.8261 13.217C46.1369 13.217 45.0165 13.9103 45.0165 14.9609C45.0165 18.4281 54.6947 16.5579 54.6947 23.9543C54.6947 27.6736 51.903 30.1531 47.7162 30.1531C45.5125 30.1531 42.7943 29.3126 40.9211 28.22C39.9846 27.6736 39.9297 27.3583 40.7374 25.5933C41.4356 24.0383 41.6557 23.8702 42.6658 24.3537C44.2634 25.1521 46.2838 25.7614 47.6427 25.7614C49.1854 25.7614 50.2138 25.0469 50.2138 23.9963C50.2138 20.6343 40.3704 22.2312 40.3704 15.0661C40.3704 11.2627 43.1433 8.72003 47.2937 8.72003C49.2403 8.72003 51.7012 9.39243 53.4089 10.2753Z" fill="#373D40"/>
<path fill-rule="evenodd" clip-rule="evenodd" d="M61.2146 1.49174V29.0605C61.2146 29.4807 60.8288 29.9219 60.2782 29.9219H57.7436C57.1927 29.9219 56.8069 29.4807 56.8069 29.0605V1.49174C56.8069 0.126075 57.1377 0 59.0109 0C61.1412 0 61.2146 0.1681 61.2146 1.49174Z" fill="#373D40"/>
<path fill-rule="evenodd" clip-rule="evenodd" d="M67.5502 23.8702C67.5502 25.2782 68.5971 26.2236 70.1765 26.2236C72.0864 26.2236 73.8124 25.173 74.8226 23.3871V21.538C73.8124 21.0966 72.5821 20.8444 71.4802 20.8444C69.1296 20.8444 67.5502 22.1263 67.5502 23.8702ZM79.23 16.9993V28.8712C79.23 29.5016 78.8445 29.943 78.2936 29.943H75.7958C75.2266 29.943 74.8226 29.4596 74.8593 28.8083L74.896 27.5264C73.5371 29.2494 71.5904 30.1531 69.6438 30.1531C65.8607 30.1531 63.3264 27.6525 63.3264 23.9123C63.3264 19.941 66.1913 17.2723 70.4886 17.2514C72.1231 17.2514 73.6105 17.5876 74.8226 18.1548V16.7892C74.8226 14.6038 73.3167 13.3011 70.7642 13.3011C69.5703 13.3011 68.1012 13.8474 66.9258 14.6247C66.0259 15.2131 65.8055 15.171 64.8323 13.5112C63.8773 11.8511 63.9141 11.536 64.8323 10.8636C66.5953 9.56053 68.9827 8.72003 71.1864 8.72003C76.1263 8.72003 79.23 11.7882 79.23 16.9993Z" fill="#373D40"/>
<path fill-rule="evenodd" clip-rule="evenodd" d="M96.4203 10.3173C97.3382 10.9265 97.3752 11.2627 96.365 13.0489C95.4103 14.7299 95.2449 14.8348 94.235 14.2465C93.4634 13.7842 92.2332 13.3851 91.223 13.3851C88.0461 13.3851 85.934 15.7805 85.934 19.3947C85.934 23.1558 88.0461 25.6773 91.223 25.6773C92.3251 25.6773 93.7023 25.1942 94.602 24.6267C95.5203 24.0175 95.7224 24.0595 96.6956 25.6773C97.5771 27.1902 97.5588 27.5476 96.769 28.1779C95.3551 29.2915 93.1146 30.1531 91.1498 30.1531C85.2732 30.1531 81.3429 25.8454 81.3429 19.3947C81.3429 12.9857 85.2732 8.72003 91.1862 8.72003C92.986 8.72003 95.098 9.4136 96.4203 10.3173Z" fill="#373D40"/>
<path fill-rule="evenodd" clip-rule="evenodd" d="M115.593 27.3163C116.328 28.3881 116.034 28.7663 114.198 29.5228C112.324 30.3001 112.067 30.2581 111.406 29.2706L106.154 21.2438L103.803 23.8494V29.0605C103.803 29.4807 103.418 29.9219 102.867 29.9219H100.333C99.7817 29.9219 99.3959 29.4807 99.3959 29.0605V1.49174C99.3959 0.126075 99.7264 0 101.6 0C103.73 0 103.803 0.1681 103.803 1.49174V17.1674L111.002 9.26668C111.792 8.40502 112.233 8.4682 113.647 9.53969C115.208 10.6955 115.318 11.0106 114.565 11.8511L109.202 17.8186L115.593 27.3163Z" fill="#373D40"/>
</svg>
