<svg width="87" height="93" viewBox="0 0 87 93" fill="none" xmlns="http://www.w3.org/2000/svg">
<path d="M62.2681 53.384C62.2681 51.056 62.2681 51.056 59.9401 51.056C55.5481 51.056 51.1561 51.008 46.7641 51.08C44.4121 51.128 42.2041 50.672 40.1881 49.448C39.7801 49.064 39.9001 48.56 39.9001 48.104C39.9001 43.28 39.8521 38.48 39.9001 33.656C39.9241 31.064 39.0121 29 36.9721 27.416C36.7081 27.224 36.3961 27.056 36.3721 26.672C36.3721 21.248 36.3961 15.8 36.3721 10.376C36.3721 7.15997 37.5481 4.51997 40.1881 2.62397C41.2681 1.85597 42.4681 1.35197 43.7881 1.13597C43.9561 1.11197 44.1481 1.11197 44.2681 0.94397C53.1961 0.94397 62.1001 0.94397 71.0281 0.94397C72.2041 1.08797 73.3801 1.25597 74.4361 1.87997C77.5081 3.70397 79.1161 6.43997 79.1641 9.94397C79.2601 20.648 79.2361 31.352 79.1641 42.08C79.1401 47.264 74.9401 51.296 69.7561 51.32C69.4201 51.32 69.0841 51.344 68.7721 51.32C66.5641 51.08 64.5481 51.44 62.9401 53.12C62.8201 53.288 62.5801 53.456 62.2681 53.384Z" fill="#F6F2F0"/>
<path d="M62.2681 53.384C62.6041 53.12 62.9641 52.904 63.2521 52.616C64.5961 51.176 66.2521 50.888 68.1241 51.032C70.5481 51.224 72.8761 50.912 74.9641 49.472C77.6281 47.624 78.9481 45.056 78.9721 41.888C79.0201 31.328 78.9961 20.768 78.9961 10.208C78.9961 5.71997 75.9481 1.68797 71.3161 1.08797C71.2441 1.08797 71.1721 0.99197 71.1001 0.94397C73.7401 0.94397 76.3561 0.94397 78.9961 0.94397C80.5081 1.37597 81.9721 1.85597 83.2441 2.86397C85.4281 4.61597 86.6761 6.89597 86.6761 9.65597C86.7481 20.552 86.7961 31.448 86.6761 42.32C86.6281 46.568 83.6521 50.096 79.1881 50.864C77.5801 51.152 75.9721 51.008 74.3641 51.008C73.4281 51.008 72.7321 51.272 72.0121 51.824C69.0601 54.128 66.0601 56.384 63.0601 58.664C62.8681 58.808 62.7241 59.192 62.4121 59C62.1721 58.832 62.3161 58.496 62.3161 58.232C62.2681 56.6 62.2681 54.992 62.2681 53.384Z" fill="#EEE6E2"/>
<path d="M30.132 65.3839C27.372 67.4959 24.588 69.6319 21.66 71.8639C21.66 70.4719 21.684 69.2479 21.66 68.0239C21.636 67.1839 22.02 66.1279 21.516 65.5999C20.964 65.0239 19.86 65.4319 19.02 65.4079C15.3 65.3839 11.604 65.4079 7.88404 65.4079C3.63604 65.4079 0.540039 62.2879 0.540039 58.0399C0.540039 49.7839 0.540039 41.5279 0.540039 33.2719C0.540039 29.0239 3.66004 25.9279 7.90804 25.9039C13.356 25.9039 18.804 25.9279 24.228 25.9279C27.924 26.2639 30.252 29.5519 30.372 32.8639C30.468 35.5279 30.396 38.1919 30.396 40.8559C30.396 41.1439 30.396 41.4559 30.204 41.7199C28.86 41.8879 27.516 41.7919 26.196 41.7439C25.548 41.7199 25.428 41.2639 25.5 40.7119C25.644 39.7039 25.836 38.6959 25.98 37.6879C26.028 37.3999 26.1 37.0879 26.076 36.7999C26.028 36.2239 25.716 35.8399 25.14 35.7439C24.54 35.6479 24.156 35.9359 23.964 36.4879C23.652 37.4719 23.58 38.4799 23.412 39.4879C23.028 41.8159 23.028 41.8159 20.652 41.7919C19.308 41.7679 19.188 41.6479 19.38 40.3279C19.548 39.2959 19.764 38.2639 19.884 37.2319C19.98 36.3919 19.692 35.8879 19.068 35.7679C18.396 35.6239 17.916 36.0079 17.724 36.8719C17.46 38.0719 17.316 39.2959 17.1 40.4959C16.884 41.6719 16.764 41.7919 15.588 41.7919C14.388 41.7919 13.188 41.7919 11.988 41.7919C11.628 41.7919 11.268 41.7919 10.932 41.9119C10.404 42.1039 10.068 42.4639 10.068 43.0399C10.092 43.6399 10.452 43.9519 11.004 44.0719C11.652 44.2159 12.324 44.1439 12.972 44.1439C13.812 44.1679 14.652 44.1199 15.492 44.1679C16.116 44.1919 16.428 44.5039 16.332 45.1519C16.332 45.1999 16.308 45.2719 16.308 45.3199C15.804 48.3919 16.092 48.0559 13.212 48.0799C12.612 48.0799 12.012 48.0559 11.412 48.0799C10.524 48.1039 10.02 48.5119 10.02 49.1599C10.02 49.7839 10.548 50.2159 11.412 50.2399C12.276 50.2639 13.14 50.2399 14.004 50.2639C15.18 50.2879 15.396 50.5279 15.204 51.6799C15.036 52.7359 14.844 53.7919 14.676 54.8719C14.556 55.6879 14.916 56.2639 15.588 56.3599C16.188 56.4559 16.716 56.0719 16.884 55.2559C17.148 54.0319 17.292 52.7839 17.532 51.5359C17.724 50.4079 17.916 50.2639 19.068 50.2399C19.596 50.2399 20.148 50.2159 20.676 50.2639C21.276 50.2879 21.54 50.5759 21.444 51.1999C21.3 52.2079 21.108 53.2159 20.964 54.1999C20.916 54.5359 20.844 54.8479 20.844 55.1839C20.844 55.8079 21.132 56.2399 21.756 56.3359C22.38 56.4319 22.788 56.1199 22.98 55.5199C23.1 55.1119 23.172 54.7039 23.244 54.2959C23.436 53.2399 23.604 52.1599 23.772 51.1039C23.844 50.6479 24.06 50.3119 24.564 50.2879C26.268 50.2159 27.972 50.2159 29.676 50.2879C29.916 50.2879 30.156 50.3839 30.276 50.6239C30.468 51.0559 30.42 51.5119 30.42 51.9439C30.42 55.9519 30.42 59.9359 30.42 63.9439C30.396 64.4239 30.492 64.9519 30.132 65.3839Z" fill="#72D0FA"/>
<path d="M40.164 60.176C42.444 60.2 44.724 60.224 47.004 60.224C49.5 60.512 51.348 62.504 51.348 65.024C51.348 67.016 51.492 69.008 51.252 70.976C51.108 71.24 50.916 71.144 50.748 71C50.46 70.736 50.22 70.424 49.908 70.184C48.564 69.032 46.668 69.104 45.468 70.4C44.964 70.952 44.628 70.928 44.172 70.4C43.236 69.296 42.012 69.128 40.74 69.56C39.396 70.04 38.7 71.12 38.556 72.56C38.34 74.72 39.396 76.28 40.932 77.6C41.94 78.464 43.116 79.064 44.244 79.736C44.652 79.976 45.012 79.952 45.42 79.736C47.412 78.608 49.38 77.48 50.58 75.44C50.7 75.224 50.868 74.816 51.228 75.248C51.396 75.704 51.348 76.208 51.348 76.664C51.348 78.872 51.372 81.104 51.348 83.312C51.3 85.784 49.524 87.896 47.148 88.352C46.644 88.448 46.14 88.544 45.684 88.208C42.588 88.208 39.468 88.088 36.372 88.232C32.94 88.376 30.708 85.64 30.78 82.664C30.9 76.904 30.804 71.144 30.78 65.36C30.3 63.8 31.14 62.624 32.052 61.568C32.868 60.608 34.02 60.08 35.268 59.96C36.708 59.816 38.124 59.888 39.564 59.912C39.804 59.96 39.996 60.032 40.164 60.176Z" fill="#F98F83"/>
<path d="M40.1641 60.176C38.7961 60.176 37.4281 60.2 36.0361 60.2C33.0121 60.224 31.0201 62.192 30.7801 65.384C30.5641 65.384 30.3241 65.36 30.1081 65.36C30.1081 60.392 30.1081 55.424 30.1081 50.48C31.0201 49.448 30.6841 48.488 29.9161 47.576C29.8201 46.52 29.7961 45.464 29.9161 44.408C29.9641 44.24 30.0841 44.096 30.2041 43.976C30.8761 43.232 30.9001 42.824 30.3241 42.008C30.2281 41.888 30.1321 41.792 30.1081 41.624C30.1081 38.936 30.1081 36.248 30.1081 33.56C30.1081 29.624 28.1401 27.056 24.3481 26C24.3001 25.976 24.2521 25.928 24.2041 25.904C27.3481 25.904 30.5161 25.88 33.6601 25.904C34.6201 25.904 35.5081 26.312 36.3961 26.648C39.0841 28.328 40.2601 30.728 40.2121 33.92C40.1161 39.08 40.2121 44.24 40.2121 49.4C40.1881 53 40.1881 56.6 40.1641 60.176Z" fill="#62A5FC"/>
<path d="M45.708 88.232C47.988 88.304 49.644 87.32 50.7 85.304C51.012 84.728 51.132 84.08 51.132 83.408C51.132 80.648 51.132 77.864 51.132 75.104C51.036 74.984 50.988 74.84 51.012 74.696C51.252 73.64 51.3 72.584 51.012 71.504C50.988 71.384 51.036 71.264 51.108 71.168C51.108 69.2 51.132 67.232 51.132 65.264C51.132 62.888 49.644 60.992 47.34 60.368C47.22 60.344 47.124 60.272 47.028 60.224C49.476 60.224 51.924 60.128 54.372 60.224C56.892 60.32 58.98 62.576 59.004 65.288C59.052 71.24 59.076 77.192 59.004 83.144C58.98 86.36 56.412 88.448 53.796 88.232C52.38 88.112 51.276 88.544 50.22 89.456C48.852 90.632 47.364 91.688 45.708 92.96C45.708 91.232 45.708 89.744 45.708 88.232Z" fill="#FE6CB4"/>
<path d="M54.4199 25.3759C55.5719 24.8239 56.1479 23.6719 56.9879 22.8079C58.1879 21.5599 59.2919 20.2159 60.4199 18.8959C61.9559 17.1439 62.7719 15.1039 62.8199 12.7759C62.8439 12.0079 63.1319 11.4319 63.8999 11.2159C64.7159 10.9999 65.3159 11.3599 65.6759 12.0799C67.0439 14.6719 67.1399 17.3359 66.1079 20.0479C65.7719 20.9119 65.4119 21.7519 65.0039 22.7119C65.4359 22.7119 65.7719 22.7119 66.0839 22.7119C68.7239 22.7599 71.3399 22.7839 73.9799 22.8319C75.1799 22.8559 76.0919 23.6719 76.0919 24.8239C76.1159 29.3359 76.1159 33.8719 76.0919 38.3839C76.0919 39.5119 75.1559 40.4239 74.0039 40.4479C69.3719 40.4719 64.7159 40.4959 60.0839 40.4239C58.3319 40.3999 56.7959 39.6319 55.4279 38.5279C55.0919 38.2639 54.7559 38.0239 54.4199 37.7599C54.0359 37.4479 54.0839 37.0159 54.0839 36.6079C54.0599 33.2479 54.0599 29.8879 54.0839 26.5279C54.0839 26.1199 54.0359 25.6639 54.4199 25.3759Z" fill="#FED26C"/>
<path d="M54.4202 25.3759C54.4202 29.5039 54.4202 33.6319 54.4202 37.7599C54.3002 39.8959 54.3002 39.8959 52.1162 39.8959C50.7962 39.8959 49.4762 39.8959 48.1801 39.8959C47.3881 39.8959 47.0042 39.6079 47.0042 38.7199C47.0282 33.8719 47.0282 29.0239 47.0042 24.1999C47.0042 23.3599 47.2921 22.9999 48.1561 23.0239C49.8601 23.0719 51.5642 23.0719 53.2682 23.0239C54.1322 22.9999 54.4682 23.3839 54.3962 24.2239C54.3482 24.5839 54.3962 24.9919 54.4202 25.3759Z" fill="#8DE5F2"/>
<path d="M30.1321 41.6479C31.3081 42.3919 31.3321 43.5199 30.1321 44.2879C29.8201 44.6479 29.4121 44.6479 28.9801 44.6719C28.0921 44.6719 27.1801 44.6959 26.2921 44.6719C25.6201 44.6479 25.2601 44.8879 25.1401 45.6079C24.8041 47.7679 24.6601 47.5279 26.7721 47.5519C27.5401 47.5519 28.3321 47.5519 29.1001 47.5519C29.4601 47.5519 29.8201 47.5519 30.1321 47.7919C31.3321 48.7039 31.3321 49.5919 30.1321 50.5039C28.3321 50.5039 26.5321 50.5279 24.7561 50.5039C24.3001 50.5039 24.0841 50.5999 24.0121 51.1279C23.8201 52.5199 23.5561 53.8879 23.3161 55.2799C23.1241 56.3599 22.6201 56.7919 21.7081 56.6719C20.7961 56.5519 20.4361 55.9759 20.5801 54.9199C20.7721 53.6479 20.9401 52.3759 21.1801 51.1279C21.2761 50.5759 21.0841 50.5039 20.6521 50.5279C20.0761 50.5519 19.5001 50.5999 18.9481 50.5279C18.1561 50.4319 17.8441 50.7679 17.7481 51.5119C17.5801 52.7599 17.3641 53.9839 17.1721 55.2319C17.0041 56.3119 16.3801 56.8639 15.5401 56.7199C14.6041 56.5519 14.2201 55.8799 14.4361 54.7759C14.6521 53.6239 14.8201 52.4719 15.0121 51.3439C15.1081 50.7679 14.9641 50.5279 14.3161 50.5519C13.3081 50.5999 12.2761 50.5759 11.2681 50.5519C10.2601 50.5519 9.63609 49.9999 9.66009 49.1599C9.68409 48.3439 10.2601 47.8399 11.2441 47.8399C12.4681 47.8399 13.6921 47.8159 14.9161 47.8399C15.3481 47.8399 15.5881 47.7199 15.6601 47.2879C15.7801 46.4959 15.9481 45.7039 16.0681 44.9119C16.1641 44.3599 15.7561 44.4559 15.4441 44.4319C14.0281 44.4319 12.6361 44.4319 11.2201 44.4319C10.6681 44.4319 10.1401 44.2879 9.85209 43.7359C9.58809 43.2079 9.58809 42.7039 9.94809 42.1999C10.2841 41.6959 10.8121 41.5759 11.3641 41.5759C12.8521 41.5759 14.3641 41.5519 15.8521 41.5759C16.4041 41.5759 16.6441 41.4559 16.7161 40.8559C16.8841 39.5359 17.1481 38.2159 17.3881 36.8959C17.5801 35.8159 18.1561 35.3119 19.0441 35.4559C19.9321 35.5999 20.2921 36.2 20.1001 37.3519C19.9081 38.5519 19.7401 39.7759 19.5241 40.9759C19.4281 41.4559 19.5721 41.6239 20.0521 41.5999C20.6761 41.5759 21.3241 41.5279 21.9241 41.5999C22.6681 41.6959 22.8361 41.2879 22.9321 40.6879C23.1241 39.3679 23.3161 38.0239 23.5801 36.7279C23.8201 35.5519 24.7801 35.096 25.6921 35.672C26.2681 36.032 26.4121 36.5839 26.3161 37.2319C26.1241 38.4079 25.9321 39.5839 25.6921 40.7599C25.5721 41.3839 25.6921 41.6239 26.3641 41.6239C27.6121 41.5519 28.8841 41.4319 30.1321 41.6479Z" fill="#F6F2F0"/>
<path d="M51.1321 71.168C51.6361 72.488 51.5401 73.784 51.1321 75.104C49.8601 77.576 47.5561 78.872 45.2521 80.144C45.0601 80.264 44.8921 80.336 44.6761 80.216C42.5161 78.992 40.2841 77.864 38.9641 75.608C37.9321 73.832 38.1481 71.408 39.4681 70.112C40.9081 68.696 43.0681 68.744 44.3881 70.256C44.7481 70.664 44.8681 70.88 45.3241 70.28C46.4281 68.84 48.7081 68.744 50.1241 70.016C50.4841 70.376 50.7961 70.784 51.1321 71.168Z" fill="#F6F2F0"/>
<path d="M30.1319 47.792C28.5239 47.792 26.9159 47.768 25.3079 47.792C24.7319 47.792 24.492 47.672 24.66 47.024C24.876 46.208 24.636 45.056 25.212 44.552C25.836 44.024 26.916 44.432 27.8039 44.384C28.5719 44.336 29.3639 44.48 30.1079 44.288C30.1319 45.44 30.1319 46.616 30.1319 47.792Z" fill="#72D0FA"/>
<path d="M20.052 47.768C18.42 47.768 18.42 47.768 18.636 46.184C18.9 44.36 18.9 44.36 20.724 44.36C22.236 44.36 22.236 44.36 22.044 45.848C22.044 45.944 22.02 46.016 22.02 46.112C21.732 47.768 21.732 47.768 20.052 47.768Z" fill="#72D0FA"/>
</svg>
