<svg width="28" height="26" viewBox="0 0 28 26" fill="none" xmlns="http://www.w3.org/2000/svg">
<path d="M26.3782 9.6184L18.4438 8.46527L14.8969 1.27465C14.8001 1.07777 14.6407 0.918395 14.4438 0.82152C13.9501 0.57777 13.3501 0.780895 13.1032 1.27465L9.55631 8.46527L1.62193 9.6184C1.40318 9.64965 1.20318 9.75277 1.05006 9.90902C0.864939 10.0993 0.76293 10.3553 0.766445 10.6207C0.769961 10.8862 0.878714 11.1393 1.06881 11.3246L6.80943 16.9215L5.45318 24.8246C5.42138 25.0085 5.44172 25.1976 5.51191 25.3704C5.58209 25.5433 5.69931 25.6931 5.85027 25.8027C6.00123 25.9123 6.17989 25.9775 6.36599 25.9908C6.5521 26.004 6.73819 25.9649 6.90318 25.8778L14.0001 22.1465L21.0969 25.8778C21.2907 25.9809 21.5157 26.0153 21.7313 25.9778C22.2751 25.884 22.6407 25.3684 22.5469 24.8246L21.1907 16.9215L26.9313 11.3246C27.0876 11.1715 27.1907 10.9715 27.2219 10.7528C27.3063 10.2059 26.9251 9.69965 26.3782 9.6184Z" fill="#F2C94C"/>
</svg>
