<svg width="20" height="20" viewBox="0 0 20 20" fill="none" xmlns="http://www.w3.org/2000/svg">
<path d="M10.0051 15.8434H9.98842C9.93675 15.8434 4.76758 15.8334 3.46342 15.4792C3.11103 15.3843 2.78977 15.1984 2.53178 14.9403C2.2738 14.6822 2.08815 14.3608 1.99342 14.0084C1.7589 12.6853 1.64566 11.3436 1.65508 10C1.64903 8.6542 1.76534 7.31061 2.00258 5.98585C2.09999 5.63283 2.2865 5.31077 2.54421 5.05058C2.80192 4.79039 3.12218 4.60081 3.47425 4.50002C4.74258 4.16669 9.76925 4.16669 9.98258 4.16669H10.0001C10.0526 4.16669 15.2351 4.17669 16.5259 4.53085C17.2418 4.72502 17.8009 5.28419 17.9943 6.00002C18.2359 7.32835 18.3501 8.67585 18.3334 10.0259C18.3393 11.37 18.2227 12.712 17.9851 14.035C17.8891 14.3871 17.7027 14.7079 17.4444 14.9656C17.1861 15.2233 16.8649 15.409 16.5126 15.5042C15.2459 15.84 10.2184 15.8434 10.0051 15.8434ZM8.33842 7.50419L8.33425 12.5042L12.6776 10.0042L8.33842 7.50419Z" fill="#5EC5D9"/>
</svg>
